<?xml version="1.0" encoding="utf-8"?>
<!-- Generator: Adobe Illustrator 22.0.1, SVG Export Plug-In . SVG Version: 6.00 Build 0)  -->
<svg version="1.1" id="Layer_1" xmlns="http://www.w3.org/2000/svg" xmlns:xlink="http://www.w3.org/1999/xlink" x="0px" y="0px"
	 viewBox="0 0 135 129" style="enable-background:new 0 0 135 129;" xml:space="preserve">
<style type="text/css">
	.st0{fill:#FAE500;}
</style>
<g>
	<path class="st0" d="M29.8,81.5l21.3-21.3l-7.9-3.4L15.8,84.3C20.6,86.3,26.1,85.2,29.8,81.5z"/>
	<path class="st0" d="M12.1,104.9c4.8,2,10.4,1,14-2.7L63,65.3l-7.9-3.4L12.1,104.9z"/>
	<path class="st0" d="M52.4,47.7c3.7-3.7,4.8-9.2,2.7-14l-1-2.3l10.4,4.2l6.1-6.1l-17-6.9c-2.4-1-5.2-0.4-7.1,1.5
		c-1.8,1.9-2.3,4.6-1.3,7L52.4,47.7z"/>
	<path class="st0" d="M88.3,32.7c1.8-1,3.3-2.7,4.2-4.7c2.2-5.1-0.2-11-5.3-13.1c-5.1-2.2-11,0.2-13.1,5.3c-0.9,2.1-1,4.3-0.5,6.3
		L88.3,32.7z"/>
	<path class="st0" d="M128.5,67.8l-11.6,11.6l-20.7-8.8l0,0V44.8c0-4.1-4.2-6.9-8-5.4v27.8l0,0l-18.9-8l-19.9-8.4l-3.1,3.1l75.4,32
		l8.6-8.6C133.2,74.3,132.3,69.4,128.5,67.8z"/>
	<path class="st0" d="M4,113.9h18c2.6,0,5-1.6,5.9-4H8L4,113.9z"/>
	<polygon class="st0" points="112,113.9 122.4,113.9 124,109.9 113.6,109.9 	"/>
</g>
</svg>
