<?xml version="1.0" encoding="utf-8"?>
<!-- Generator: Adobe Illustrator 22.0.1, SVG Export Plug-In . SVG Version: 6.00 Build 0)  -->
<svg version="1.1" id="Layer_1" xmlns="http://www.w3.org/2000/svg" xmlns:xlink="http://www.w3.org/1999/xlink" x="0px" y="0px"
	 viewBox="0 0 135 129" style="enable-background:new 0 0 135 129;" xml:space="preserve">
<style type="text/css">
	.st0{fill:#FAE500;}
</style>
<g>
	<path class="st0" d="M44.1,75.7l-2.7,1.1l50.5,50.5c1.2,1.2,3.1,1.6,4.7,0.9L44.1,75.7z"/>
	<path class="st0" d="M89.3,62.3L75.4,48.5c-1.2-1.2-3.1-1.6-4.7-0.9l15.9,15.9L89.3,62.3z"/>
	<path class="st0" d="M86.8,75.1l8.1,8.1l-13,5.5c-2.6,1.1-3.2,4.4-1.2,6.4l-4.1,1.7c-2.6,1.1-3.2,4.4-1.2,6.4L103,91.3l8-3.4
		L88.6,65.5C84.8,67.1,83.8,72.1,86.8,75.1"/>
	<path class="st0" d="M126,87.7l-22.6-22.6c-2.5-2.5-6.2-3.2-9.5-1.8L124.8,94C127.3,93,128,89.6,126,87.7"/>
	<path class="st0" d="M117.1,76.4c1.4,0.1,2.9-0.2,4.1-1.1c3.1-2,4-6.2,2-9.3c-2-3.1-6.2-4-9.3-2c-1.3,0.8-2.2,2-2.6,3.3L117.1,76.4
		z"/>
	<path class="st0" d="M54.3,15.9L40.4,2.1c-1.2-1.2-3.1-1.6-4.7-0.9l15.9,15.9L54.3,15.9z"/>
	<path class="st0" d="M51.8,28.7l8.1,8.1l-13,5.5c-2.6,1.1-3.2,4.4-1.2,6.4l-4.1,1.7c-2.6,1.1-3.2,4.4-1.2,6.4L68.1,45l8-3.4
		L53.6,19.1C49.8,20.7,48.8,25.7,51.8,28.7"/>
	<path class="st0" d="M91,41.3L68.4,18.7c-2.5-2.5-6.2-3.2-9.5-1.8l30.8,30.8C92.4,46.6,93,43.2,91,41.3"/>
	<path class="st0" d="M82.1,30c1.4,0.1,2.9-0.2,4.1-1.1c3.1-2,4-6.2,2-9.3s-6.2-4-9.3-2c-1.3,0.8-2.2,2-2.6,3.3L82.1,30z"/>
	<path class="st0" d="M11.4,31.3l-2.7,1.1l42,42.3c1.2,1.2,3.1,1.6,4.7,0.9L11.4,31.3z"/>
</g>
</svg>
