<?xml version="1.0" encoding="utf-8"?>
<!-- Generator: Adobe Illustrator 22.0.1, SVG Export Plug-In . SVG Version: 6.00 Build 0)  -->
<svg version="1.1" id="Calque_1" xmlns="http://www.w3.org/2000/svg" xmlns:xlink="http://www.w3.org/1999/xlink" x="0px" y="0px"
	 viewBox="0 0 195.3 236.1" style="enable-background:new 0 0 195.3 236.1;" xml:space="preserve">
<style type="text/css">
	.st0{fill:#FAE500;}
	.st1{fill:#FFFFFF;}
</style>
<path class="st0" d="M14.8,33.8v15c0,2.9-0.9,5.1-2.6,6.5c-1.7,1.4-3.9,2.1-6.5,2.1H5.4V33.8h-3v-8.1h3V2.5h13.5
	c1.9,0,3.6,0.3,5.3,0.9c1.6,0.6,3,1.4,4.2,2.5c1.2,1.1,2.1,2.5,2.8,4.2c0.7,1.7,1,3.7,1,6V20c0,4.6-1.2,8-3.7,10.3
	c-2.5,2.3-5.7,3.4-9.5,3.4H14.8z M14.8,25.7h2.8c1.7,0,3-0.5,3.9-1.4c0.9-1,1.4-2.5,1.4-4.5v-3.2c0-2-0.5-3.5-1.4-4.5
	c-0.9-1-2.2-1.4-3.9-1.4h-2.8V25.7z"/>
<path class="st0" d="M52.8,9.5c0.4-1.5,0.9-2.7,1.6-3.7c0.6-1,1.4-1.7,2.1-2.3c0.8-0.5,1.6-0.9,2.4-1.1c0.9-0.2,1.7-0.3,2.6-0.3h3.1
	L53.9,34.8v22.3h-9.4V34.8L34,2.5h9.8l5.5,19.1L52.8,9.5z"/>
<path class="st0" d="M93.4,2.7c0,2.2-0.6,4.1-1.9,5.6c-1.2,1.5-3.1,2.3-5.6,2.3h-7.3v15h11v8.1h-11V49h14.8v8.1H69.2V33.8h-3v-8.1h3
	V2.5h24.2V2.7z"/>
<path class="st0" d="M96.7,15c0-1.8,0.3-3.4,0.8-5c0.5-1.6,1.4-3,2.5-4.2c1.1-1.2,2.6-2.2,4.3-2.9c1.7-0.7,3.7-1.1,6.1-1.1
	s4.4,0.4,6.1,1.1c1.7,0.7,3.1,1.7,4.3,2.9c1.1,1.2,2,2.6,2.5,4.2c0.5,1.6,0.8,3.3,0.8,5v29.6c0,1.8-0.3,3.4-0.8,5
	c-0.5,1.6-1.4,3-2.5,4.2c-1.1,1.2-2.6,2.2-4.3,2.9c-1.7,0.7-3.7,1.1-6.1,1.1s-4.4-0.4-6.1-1.1c-1.7-0.7-3.1-1.7-4.3-2.9
	c-1.1-1.2-2-2.6-2.5-4.2c-0.5-1.6-0.8-3.3-0.8-5V15z M114.7,14.6c0-1-0.3-2.1-0.9-3.1c-0.6-1-1.7-1.5-3.4-1.5
	c-1.7,0-2.9,0.5-3.4,1.5c-0.6,1-0.9,2-0.9,3.1V45c0,1,0.3,2.1,0.9,3.1c0.6,1,1.7,1.5,3.4,1.5c1.7,0,2.9-0.5,3.4-1.5
	c0.6-1,0.9-2,0.9-3.1V14.6z"/>
<path class="st0" d="M138.5,22.2c0.1,1.3,0.2,2.9,0.3,4.8c0.1,1.9,0.1,3.9,0.2,5.9c0.1,2,0.1,4,0.1,5.9c0,1.9,0,3.6,0,5v5.7
	c0,2.7-0.8,4.7-2.5,6c-1.6,1.3-3.6,2-6,2h-0.2v-55h10.1l9.9,32.1c-0.1-1.3-0.2-2.8-0.3-4.4c-0.1-1.6-0.1-3.3-0.2-5
	c0-1.7-0.1-3.4-0.1-5c0-1.7,0-3.2,0-4.6V2.5h8.7v54.6h-9.4L138.5,22.2z"/>
<path class="st0" d="M192.3,29v28.1h-1.1c-1,0-2.1-0.2-3.2-0.6c-1.1-0.4-2-1.1-2.7-2c-0.7,0.9-1.7,1.7-3,2.3c-1.3,0.7-3,1-5,1
	c-2,0-3.7-0.3-5.3-0.9c-1.5-0.6-2.8-1.5-3.9-2.5c-1.1-1.1-1.9-2.3-2.4-3.8c-0.5-1.5-0.8-3.1-0.8-4.8V14.9c0-1.8,0.3-3.4,0.9-5
	c0.6-1.6,1.5-3,2.7-4.2c1.2-1.2,2.6-2.1,4.4-2.8c1.8-0.7,3.8-1.1,6.2-1.1c2.3,0,4.4,0.4,6,1.1c1.7,0.7,3.1,1.7,4.2,2.9
	c1.1,1.2,1.9,2.6,2.4,4.2c0.5,1.6,0.8,3.3,0.8,5v6.5h-8.9v-6.6c0-1.2-0.3-2.4-1-3.4c-0.7-1-1.8-1.5-3.5-1.5c-1.7,0-2.9,0.5-3.6,1.5
	c-0.7,1-1.1,2.1-1.1,3.4v29.8c0,1.4,0.3,2.5,1,3.5c0.7,1,1.9,1.4,3.6,1.4c1.5,0,2.6-0.5,3.3-1.4c0.8-1,1.1-2.1,1.1-3.5v-7.6h-4.8
	v-0.2c0-2.2,0.6-4.1,1.8-5.6c1.2-1.5,3-2.3,5.5-2.3H192.3z"/>
<path class="st1" d="M35.4,105.4v11.2c0,2.1-0.3,4-0.9,5.9c-0.6,1.9-1.5,3.5-2.7,4.9c-1.2,1.4-2.8,2.5-4.7,3.4
	c-1.9,0.8-4.3,1.2-7,1.2s-5.1-0.4-7.1-1.2c-2-0.8-3.7-1.9-5.1-3.3c-1.3-1.4-2.3-3-3-4.9c-0.6-1.9-1-3.8-1-5.9V81.8
	c0-2.1,0.3-4,1-5.9c0.6-1.9,1.6-3.5,3-4.9c1.3-1.4,3-2.5,5.1-3.3c2-0.8,4.4-1.2,7.1-1.2s5.1,0.4,7,1.2c1.9,0.8,3.5,1.9,4.7,3.4
	c1.2,1.4,2.1,3.1,2.7,4.9c0.6,1.9,0.9,3.8,0.9,5.9v11.2h-0.3c-2.9,0-5.3-0.8-7.2-2.4c-1.9-1.6-2.9-4-2.9-7.3v-1.6
	c0-0.6-0.1-1.2-0.2-1.9c-0.2-0.7-0.4-1.3-0.8-1.9c-0.4-0.6-0.9-1-1.5-1.4c-0.6-0.4-1.5-0.5-2.5-0.5c-1,0-1.8,0.2-2.5,0.5
	c-0.7,0.4-1.2,0.8-1.5,1.4c-0.4,0.6-0.6,1.2-0.8,1.9c-0.2,0.7-0.2,1.3-0.2,1.9v34.9c0,0.6,0.1,1.2,0.2,1.9c0.2,0.7,0.4,1.3,0.8,1.9
	c0.4,0.6,0.9,1,1.5,1.4c0.7,0.4,1.5,0.5,2.5,0.5c1,0,1.9-0.2,2.5-0.5c0.6-0.4,1.1-0.8,1.5-1.4c0.4-0.6,0.6-1.2,0.8-1.9
	c0.2-0.7,0.2-1.3,0.2-1.9v-1.6c0-3.3,1-5.7,2.9-7.3c1.9-1.6,4.3-2.4,7.2-2.4H35.4z"/>
<path class="st1" d="M74.6,67.5v64.2h-0.3c-3,0-5.6-0.8-7.6-2.5c-2-1.7-3.1-4.2-3.1-7.6V104h-9.8v27.2H43V104h-3.6v-9.5H43v-27h10.9
	v27h9.8v-27H74.6z"/>
<path class="st1" d="M114.9,131.6h-2.6c-1,0-2-0.1-3-0.4c-1-0.2-1.9-0.7-2.8-1.3c-0.9-0.6-1.6-1.5-2.2-2.6c-0.6-1.1-1-2.6-1.3-4.4
	l-1.2-8.5h-9.4L90,131.2H79.8l9.8-63.7H105L114.9,131.6z M100.5,105l-3.4-24.2L93.8,105H100.5z"/>
<path class="st1" d="M129.4,90.4c0.1,1.5,0.2,3.4,0.3,5.6c0.1,2.2,0.2,4.5,0.2,6.9c0.1,2.4,0.1,4.7,0.1,6.9c0,2.2,0,4.2,0,5.8v6.6
	c0,3.2-1,5.5-2.9,7.1c-1.9,1.5-4.2,2.3-7,2.3h-0.3V67.5h11.8l11.6,37.5c-0.1-1.5-0.2-3.2-0.3-5.1c-0.1-1.9-0.2-3.9-0.2-5.8
	c0-2-0.1-3.9-0.1-5.9c0-1.9,0-3.7,0-5.4V67.5h10.1v63.7H142L129.4,90.4z"/>
<path class="st1" d="M192.3,98.4v32.8H191c-1.2,0-2.5-0.2-3.7-0.7c-1.3-0.5-2.3-1.3-3.2-2.4c-0.8,1-2,1.9-3.5,2.7
	c-1.5,0.8-3.5,1.2-5.8,1.2c-2.3,0-4.4-0.4-6.1-1.1c-1.8-0.7-3.3-1.7-4.6-3c-1.2-1.2-2.2-2.7-2.8-4.5s-1-3.6-1-5.6v-36
	c0-2.1,0.3-4,1-5.9c0.7-1.9,1.7-3.5,3.1-4.9c1.4-1.4,3.1-2.5,5.1-3.3c2.1-0.8,4.5-1.2,7.2-1.2c2.7,0,5.1,0.4,7.1,1.2
	c2,0.8,3.6,1.9,4.9,3.4c1.3,1.4,2.2,3.1,2.8,4.9c0.6,1.9,0.9,3.8,0.9,5.9v7.6h-10.4v-7.7c0-1.5-0.4-2.8-1.1-4
	c-0.8-1.2-2.1-1.8-4.1-1.8c-2,0-3.4,0.6-4.2,1.8c-0.8,1.2-1.2,2.5-1.2,4v34.8c0,1.6,0.4,2.9,1.2,4.1c0.8,1.1,2.2,1.7,4.2,1.7
	c1.7,0,3-0.6,3.9-1.7c0.9-1.1,1.3-2.5,1.3-4.1v-8.8h-5.6v-0.3c0-2.6,0.7-4.8,2.1-6.6c1.4-1.8,3.6-2.6,6.5-2.6H192.3z"/>
<path class="st0" d="M3.4,177.8v-17.9c0-2.7,0.4-5.3,1.3-7.8c0.9-2.5,2.3-4.8,4.1-6.8c1.9-2,4.3-3.5,7.2-4.7
	c2.9-1.2,6.4-1.7,10.4-1.7c4.1,0,7.6,0.6,10.6,1.8c2.9,1.2,5.4,2.8,7.2,4.9c1.9,2.1,3.2,4.4,4.1,7.2c0.8,2.7,1.3,5.6,1.3,8.6v4.7
	c0,2.5-0.2,4.7-0.5,6.6c-0.3,1.9-0.9,3.8-1.8,5.7c-0.9,1.9-2.1,3.8-3.6,5.9c-1.5,2.1-3.4,4.5-5.8,7.2L25,207c-2,2.4-3.2,4.4-3.8,6
	c-0.6,1.6-0.9,3.6-0.9,6.2v0.7h29.6v13.9H4.8v-13c0-2.4,0.1-4.6,0.3-6.5c0.2-1.9,0.7-3.8,1.3-5.6c0.7-1.8,1.6-3.6,2.7-5.5
	c1.2-1.9,2.7-3.9,4.7-6.2l11.8-13.8c1.6-1.9,2.9-3.5,3.9-4.7c1-1.3,1.8-2.5,2.3-3.7c0.6-1.2,1-2.4,1.2-3.7c0.2-1.3,0.3-2.8,0.3-4.6
	v-5.8c0-1.9-0.5-3.7-1.5-5.4c-1-1.7-2.9-2.5-5.9-2.5c-2.9,0-4.9,0.8-5.9,2.5c-1,1.7-1.5,3.5-1.5,5.4v2.8c0,4.8-1.4,8.4-4.3,10.7
	c-2.9,2.3-6.4,3.5-10.6,3.5H3.4z"/>
<path class="st0" d="M57.4,161.5c0-3,0.5-5.9,1.4-8.6c0.9-2.7,2.4-5.1,4.3-7.2c2-2.1,4.4-3.7,7.4-5c2.9-1.2,6.4-1.9,10.4-1.9
	s7.5,0.6,10.4,1.9c2.9,1.3,5.4,2.9,7.4,5c2,2.1,3.4,4.4,4.3,7.2c0.9,2.7,1.4,5.6,1.4,8.6v50.8c0,3-0.5,5.9-1.4,8.6
	c-0.9,2.7-2.4,5.1-4.3,7.2c-2,2.1-4.4,3.7-7.4,5c-2.9,1.2-6.4,1.8-10.4,1.8s-7.5-0.6-10.4-1.9c-2.9-1.2-5.4-2.9-7.4-4.9
	c-2-2.1-3.4-4.4-4.3-7.2c-0.9-2.7-1.4-5.6-1.4-8.6V161.5z M88.3,160.8c0-1.8-0.5-3.5-1.5-5.3c-1-1.7-2.9-2.6-5.9-2.6
	s-4.9,0.9-5.9,2.6c-1,1.7-1.5,3.5-1.5,5.3V213c0,1.8,0.5,3.5,1.5,5.3c1,1.7,2.9,2.6,5.9,2.6s4.9-0.9,5.9-2.6c1-1.7,1.5-3.5,1.5-5.3
	V160.8z"/>
<path class="st0" d="M135,140.1v94.3h-0.4c-4.5,0-8.2-1.2-11.2-3.7c-3-2.5-4.5-6.2-4.5-11.2V154h-8.8v-13.9H135z"/>
<path class="st0" d="M192.6,213c0,3-0.5,5.9-1.4,8.6c-0.9,2.7-2.4,5-4.3,7c-2,2-4.4,3.5-7.4,4.7c-2.9,1.2-6.4,1.7-10.4,1.7
	s-7.5-0.6-10.4-1.7c-2.9-1.2-5.4-2.7-7.4-4.7c-2-2-3.4-4.3-4.3-7c-0.9-2.6-1.4-5.5-1.4-8.5v-10.2c0-3.5,0.7-6.7,2-9.8
	c1.3-3,3.7-5.5,7-7.5c-3.3-1.9-5.6-4.3-7-7.4c-1.3-3.1-2-6.4-2-9.8v-7.5c0-3,0.5-5.9,1.4-8.5c0.9-2.6,2.4-5,4.3-7
	c2-2,4.4-3.6,7.4-4.7c2.9-1.2,6.4-1.7,10.4-1.7s7.5,0.6,10.4,1.7c2.9,1.2,5.4,2.7,7.4,4.7c2,2,3.4,4.3,4.3,7s1.4,5.5,1.4,8.6v7.5
	c0,3.5-0.7,6.8-2,9.8c-1.3,3.1-3.7,5.6-7,7.4c3.3,1.9,5.6,4.3,7,7.4c1.3,3.1,2,6.4,2,9.8V213z M176.4,160.8c0-1.8-0.5-3.5-1.5-5.3
	c-1-1.7-2.9-2.6-5.9-2.6s-4.9,0.9-5.9,2.6c-1,1.7-1.5,3.5-1.5,5.3v9.5c0,1.8,0.5,3.5,1.5,5.3c1,1.7,2.9,2.6,5.9,2.6s4.9-0.9,5.9-2.6
	c1-1.7,1.5-3.5,1.5-5.3V160.8z M176.4,200.8c0-1.8-0.5-3.5-1.5-5.3c-1-1.7-2.9-2.6-5.9-2.6s-4.9,0.9-5.9,2.6c-1,1.7-1.5,3.5-1.5,5.3
	V213c0,1.8,0.5,3.5,1.5,5.3c1,1.7,2.9,2.6,5.9,2.6s4.9-0.9,5.9-2.6c1-1.7,1.5-3.5,1.5-5.3V200.8z"/>
</svg>
