<?xml version="1.0" encoding="utf-8"?>
<!-- Generator: Adobe Illustrator 22.0.1, SVG Export Plug-In . SVG Version: 6.00 Build 0)  -->
<svg version="1.1" id="Calque_1" xmlns="http://www.w3.org/2000/svg" xmlns:xlink="http://www.w3.org/1999/xlink" x="0px" y="0px"
	 viewBox="0 0 192.2 234.1" style="enable-background:new 0 0 192.2 234.1;" xml:space="preserve">
<style type="text/css">
	.st0{fill:#FFFFFF;}
</style>
<rect x="1" y="2" class="st0" width="190" height="2.7"/>
<rect x="1" y="229.1" class="st0" width="190" height="2.7"/>
<path class="st0" d="M19.3,204.4l3.6,2.7H25v-31.5H13.1v6.6h4.4v14.2c0,2.9-1.3,4.3-3.7,4.3c-2.9,0-3.7-2.1-3.7-4.3v-39.1
	c0-2.2,0.8-4.3,3.6-4.3s3.6,2.1,3.6,4.3v9.5h7.5v-9c0-7.1-3.8-11.8-11.2-11.8c-7.5,0-11.8,4.8-11.8,11.8V197c0,6.9,4.3,10.6,10,10.6
	C15.8,207.7,18.4,205.8,19.3,204.4 M57,207h7.7l-6.3-60.5h-11L40.8,207h7.3l1-10.7H56L57,207z M49.9,189.3l2.9-31.2l2.7,31.2H49.9z
	 M88.3,189.5c0-8-0.1-15.6-0.5-25.6l5.9,43.1h7.4l5.9-43.1c-0.3,9.9-0.5,17.6-0.5,25.6V207h7.5v-60.5h-11.7l-4.9,39.6l-4.9-39.6
	H80.8V207h7.5V189.5z M131.2,207h21.3v-7h-13.2v-20.9h8.6v-7h-8.6v-18.6h12.9v-7h-20.9V207H131.2z M190.3,166.8v-9.9
	c0-6.4-3.6-10.9-11-10.9c-7,0-11.3,4.4-11.3,11.4v4.9c0,6.6,2.2,11.1,6.3,14.9l4.9,4.7c2.6,2.4,3.6,4.8,3.6,9.2v5.8
	c0,2.5-1.3,3.9-3.6,3.9c-2.5,0-3.7-1.6-3.7-4.1v-11.2H168v10.9c0,6.8,4.1,11.3,11.4,11.3c7.3,0,11.6-4.8,11.6-11.8v-6
	c0-6.7-2.3-10.5-6.1-14.1l-5.1-4.9c-2.3-2.2-3.7-4.9-3.7-8.7v-5.7c0-2.2,1.1-3.7,3.3-3.7c2.3,0,3.5,1.5,3.5,4.1v9.8h7.4V166.8z"/>
<path class="st0" d="M10,73c5.6,0,8.9-3.5,8.9-8.9V35.3c0-5.4-3.3-8.9-8.9-8.9s-8.9,3.5-8.9,8.9V64C1.2,69.5,4.4,73,10,73 M10,67.7
	c-2.2,0-2.7-1.6-2.7-3.3V34.9c0-1.7,0.6-3.3,2.7-3.3s2.7,1.6,2.7,3.3v29.5C12.8,66.2,12.2,67.7,10,67.7 M46.6,72.6v-5.3h-8.8V26.8
	h-6.1v45.7L46.6,72.6L46.6,72.6z M67.1,72.6v-19L74,26.8h-6.2l-3.7,17.4l-3.4-17.4h-6.6l6.9,27v18.8C61,72.6,67.1,72.6,67.1,72.6z
	 M91.8,59.3c0-6-0.1-11.8-0.4-19.3l4.4,32.6h5.6l4.4-32.6c-0.3,7.5-0.4,13.3-0.4,19.3v13.3h5.7V26.8h-8.8l-3.7,29.9l-3.7-29.9h-8.8
	v45.7h5.7C91.8,72.5,91.8,59.3,91.8,59.3z M130.3,72.6V51.5h2.2c5.3,0,9.1-3,9.1-9.9v-5c0-6.9-4.1-9.8-9.1-9.8h-8.2v45.7L130.3,72.6
	L130.3,72.6z M130.3,46.2v-14h1.8c2.2,0,3.5,1.3,3.5,4.4v5.2c0,3.1-1.3,4.4-3.5,4.4C132.1,46.2,130.3,46.2,130.3,46.2z M159.9,26.8
	h-6.1v45.7h6.1V26.8z M184.3,56.2v8.2c0,1.7-0.7,3.3-2.7,3.3c-2.2,0-2.7-1.6-2.7-3.3V34.9c0-1.7,0.6-3.3,2.7-3.3
	c2.1,0,2.7,1.6,2.7,3.3v7.2h5.7v-6.8c0-5.4-2.9-8.9-8.4-8.9c-5.7,0-8.9,3.6-8.9,8.9V64c0,5.4,3.2,8.9,8.9,8.9c5.6,0,8.4-3.6,8.4-8.9
	v-7.8H184.3z"/>
<path class="st0" d="M22.5,135.3H30l5.4-51.7h-6.6L26,116.3l-3.8-32.7h-6.1l-3.8,32.7L9.9,83.6H2.8l5.5,51.7h7.2l3.6-33.3
	L22.5,135.3z M56.2,83.6h-6.9v51.7h6.9V83.6z M77.2,118.9c0-5.8-0.2-13.1-0.5-18.8l6.8,35.2h8.3V83.6h-6.5V100
	c0,5.8,0.3,13.1,0.6,18.8l-6.8-35.2h-8.3v51.7h6.4V118.9z M118.8,135.3V89.6h6.4v-6h-19.6v6h6.4v45.7H118.8z M138.9,135.3h18.2v-6
	h-11.3v-17.9h7.3v-6h-7.3V89.6h11v-6h-17.9V135.3z M184.1,135.3h6.9c-0.1-0.4-0.4-3.2-0.6-6.7l-0.3-11.8c-0.2-4.1-1.6-7.1-4.7-8.1
	c3.7-1.6,5.1-5.2,5.1-9.5V94c0-7.8-4.7-10.4-10.3-10.4h-9.4v51.7h6.9v-23.9h1.1c2.7,0,4.3,1.5,4.4,5.1l0.2,11.2
	C183.4,130.9,183.8,134,184.1,135.3 M177.7,89.4h2.1c2.5,0,3.9,1.6,3.9,4.8v6.3c0,3.3-1.6,4.9-4,4.9h-2.1v-16H177.7z"/>
</svg>
