<?xml version="1.0" encoding="utf-8"?>
<!-- Generator: Adobe Illustrator 22.0.1, SVG Export Plug-In . SVG Version: 6.00 Build 0)  -->
<svg version="1.1" id="Calque_1" xmlns="http://www.w3.org/2000/svg" xmlns:xlink="http://www.w3.org/1999/xlink" x="0px" y="0px"
	 viewBox="0 0 803 104" style="enable-background:new 0 0 803 104;" xml:space="preserve">
<style type="text/css">
	.st0{fill:#FAE500;}
	.st1{fill:#FFFFFF;}
</style>
<g>
	<path class="st0" d="M21.7,57.2v25.5c0,4.9-1.5,8.6-4.4,11c-2.9,2.4-6.6,3.6-11,3.6H5.9V57.2H0.7V43.5h5.1V4.3h22.8
		c3.2,0,6.1,0.5,8.9,1.5c2.8,1,5.1,2.4,7.1,4.3c2,1.9,3.5,4.3,4.7,7.2c1.1,2.9,1.7,6.3,1.7,10.2V34c0,7.7-2.1,13.5-6.3,17.4
		c-4.2,3.9-9.6,5.8-16.1,5.8H21.7z M21.7,43.5h4.7c2.8,0,5-0.8,6.6-2.4c1.6-1.6,2.4-4.2,2.4-7.6v-5.4c0-3.4-0.8-6-2.4-7.6
		c-1.6-1.6-3.8-2.4-6.6-2.4h-4.7V43.5z"/>
	<path class="st0" d="M86,16.2c0.7-2.5,1.6-4.6,2.7-6.3C89.8,8.3,91,7,92.3,6.1c1.3-0.9,2.6-1.6,4.1-1.9c1.5-0.4,2.9-0.5,4.4-0.5
		h5.3L87.9,58.9v37.7H72.1V58.9L54.3,4.3h16.6l9.4,32.3L86,16.2z"/>
	<path class="st0" d="M154.8,4.7c0,3.8-1.1,6.9-3.2,9.5c-2.1,2.6-5.3,3.8-9.5,3.8h-12.4v25.5h18.6v13.7h-18.6v25.7h25.1v13.7h-40.9
		V57.2h-5.1V43.5h5.1V4.3h40.9V4.7z"/>
	<path class="st0" d="M160.3,25.4c0-3,0.5-5.8,1.4-8.5c0.9-2.7,2.4-5,4.3-7.1c1.9-2,4.4-3.6,7.3-4.9c2.9-1.2,6.3-1.8,10.3-1.8
		s7.4,0.6,10.3,1.8c2.9,1.2,5.3,2.9,7.3,4.9c1.9,2,3.4,4.4,4.3,7.1c0.9,2.7,1.4,5.5,1.4,8.5v50.1c0,3-0.5,5.8-1.4,8.5
		c-0.9,2.7-2.4,5.1-4.3,7.1c-1.9,2.1-4.4,3.7-7.3,4.9c-2.9,1.2-6.3,1.8-10.3,1.8s-7.4-0.6-10.3-1.8c-2.9-1.2-5.3-2.9-7.3-4.9
		c-1.9-2-3.4-4.4-4.3-7.1c-0.9-2.7-1.4-5.5-1.4-8.5V25.4z M190.8,24.8c0-1.8-0.5-3.5-1.5-5.2c-1-1.7-2.9-2.6-5.8-2.6
		s-4.8,0.9-5.8,2.6c-1,1.7-1.5,3.5-1.5,5.2v51.4c0,1.8,0.5,3.5,1.5,5.2c1,1.7,2.9,2.6,5.8,2.6s4.8-0.9,5.8-2.6
		c1-1.7,1.5-3.4,1.5-5.2V24.8z"/>
	<path class="st0" d="M231,37.6c0.2,2.2,0.3,4.9,0.5,8.1c0.1,3.2,0.2,6.5,0.3,10c0.1,3.4,0.2,6.8,0.2,10c0,3.3,0.1,6.1,0.1,8.4v9.6
		c0,4.6-1.4,8-4.2,10.2s-6.1,3.4-10.1,3.4h-0.4v-93h17.1l16.7,54.3c-0.2-2.2-0.3-4.7-0.5-7.5c-0.1-2.8-0.2-5.6-0.3-8.4
		c0-2.9-0.1-5.7-0.1-8.5c0-2.8-0.1-5.4-0.1-7.8V4.3H265v92.3h-15.8L231,37.6z"/>
	<path class="st0" d="M322,49.2v47.5h-1.8c-1.8,0-3.6-0.4-5.4-1.1c-1.8-0.7-3.4-1.8-4.6-3.4c-1.1,1.5-2.8,2.8-5.1,4s-5,1.7-8.4,1.7
		c-3.3,0-6.3-0.5-8.9-1.6c-2.6-1.1-4.8-2.5-6.6-4.3c-1.8-1.8-3.2-4-4.1-6.5s-1.4-5.2-1.4-8.1V25.3c0-3,0.5-5.8,1.5-8.5
		c1-2.7,2.5-5,4.5-7.1c2-2,4.5-3.6,7.5-4.8c3-1.2,6.5-1.8,10.4-1.8c4,0,7.4,0.6,10.2,1.8c2.9,1.2,5.2,2.8,7.1,4.9
		c1.8,2.1,3.2,4.4,4.1,7.1c0.9,2.7,1.3,5.5,1.3,8.5v11.1h-15V25.3c0-2.1-0.5-4-1.6-5.7c-1.1-1.7-3.1-2.6-6-2.6
		c-2.9,0-4.9,0.9-6.1,2.6c-1.2,1.7-1.8,3.6-1.8,5.7v50.4c0,2.3,0.6,4.2,1.7,5.9c1.1,1.6,3.2,2.4,6.1,2.4c2.5,0,4.3-0.8,5.6-2.4
		c1.3-1.6,1.9-3.6,1.9-5.9V62.9h-8v-0.4c0-3.8,1-6.9,3-9.5c2-2.5,5.1-3.8,9.4-3.8H322z"/>
	<path class="st1" d="M377.4,59.3v16.2c0,3-0.4,5.8-1.3,8.5c-0.8,2.7-2.1,5.1-3.9,7.1c-1.8,2.1-4,3.7-6.9,4.9
		c-2.8,1.2-6.2,1.8-10.2,1.8s-7.4-0.6-10.4-1.8c-2.9-1.2-5.4-2.8-7.3-4.8c-1.9-2-3.4-4.4-4.3-7.1c-0.9-2.7-1.4-5.5-1.4-8.5V25.2
		c0-3,0.5-5.8,1.4-8.5c0.9-2.7,2.4-5,4.3-7.1c1.9-2,4.4-3.6,7.3-4.8c2.9-1.2,6.4-1.8,10.4-1.8s7.3,0.6,10.2,1.8
		c2.8,1.2,5.1,2.8,6.9,4.9c1.8,2.1,3.1,4.4,3.9,7.1c0.8,2.7,1.3,5.5,1.3,8.5v16.2H377c-4.1,0-7.6-1.1-10.4-3.4
		c-2.8-2.3-4.2-5.8-4.2-10.6v-2.4c0-0.9-0.1-1.8-0.3-2.8c-0.2-1-0.6-1.9-1.1-2.7c-0.5-0.8-1.3-1.5-2.2-2c-0.9-0.5-2.1-0.8-3.6-0.8
		c-1.4,0-2.6,0.3-3.6,0.8c-1,0.5-1.7,1.2-2.2,2c-0.5,0.8-0.9,1.7-1.1,2.7c-0.2,1-0.3,1.9-0.3,2.8v50.5c0,0.9,0.1,1.8,0.3,2.8
		c0.2,1,0.6,1.9,1.1,2.7c0.5,0.8,1.3,1.5,2.2,2c1,0.5,2.2,0.8,3.6,0.8c1.5,0,2.7-0.3,3.6-0.8c0.9-0.5,1.6-1.2,2.2-2
		c0.5-0.8,0.9-1.7,1.1-2.7c0.2-1,0.3-1.9,0.3-2.8v-2.4c0-4.7,1.4-8.3,4.2-10.6c2.8-2.3,6.3-3.4,10.4-3.4H377.4z"/>
	<path class="st1" d="M434.2,4.3v93h-0.4c-4.4,0-8.1-1.2-11-3.6c-2.9-2.4-4.4-6.1-4.4-11V57.2h-14.2v39.4h-15.8V57.2h-5.1V43.5h5.1
		V4.3h15.8v39.2h14.2V4.3H434.2z"/>
	<path class="st1" d="M492.5,97.3h-3.8c-1.5,0-3-0.2-4.4-0.5c-1.5-0.4-2.8-1-4-1.9c-1.2-0.9-2.3-2.2-3.2-3.8
		c-0.9-1.6-1.5-3.8-1.8-6.4l-1.7-12.3h-13.6l-3.4,24.3h-14.8L456,4.3h22.2L492.5,97.3z M471.7,58.7l-4.9-35.1l-4.9,35.1H471.7z"/>
	<path class="st1" d="M513.6,37.6c0.2,2.2,0.3,4.9,0.5,8.1c0.1,3.2,0.2,6.5,0.3,10c0.1,3.4,0.2,6.8,0.2,10c0,3.3,0.1,6.1,0.1,8.4
		v9.6c0,4.6-1.4,8-4.2,10.2s-6.1,3.4-10.1,3.4H500v-93h17.1l16.8,54.3c-0.2-2.2-0.3-4.7-0.5-7.5c-0.1-2.8-0.2-5.6-0.3-8.4
		c0-2.9-0.1-5.7-0.1-8.5c0-2.8-0.1-5.4-0.1-7.8V4.3h14.6v92.3h-15.8L513.6,37.6z"/>
	<path class="st1" d="M604.6,49.2v47.5h-1.8c-1.8,0-3.6-0.4-5.4-1.1c-1.8-0.7-3.4-1.8-4.6-3.4c-1.1,1.5-2.8,2.8-5.1,4
		s-5,1.7-8.4,1.7c-3.3,0-6.3-0.5-8.9-1.6c-2.6-1.1-4.8-2.5-6.6-4.3c-1.8-1.8-3.2-4-4.1-6.5s-1.4-5.2-1.4-8.1V25.3
		c0-3,0.5-5.8,1.5-8.5c1-2.7,2.5-5,4.5-7.1c2-2,4.5-3.6,7.5-4.8c3-1.2,6.5-1.8,10.4-1.8c4,0,7.4,0.6,10.2,1.8
		c2.9,1.2,5.2,2.8,7.1,4.9c1.8,2.1,3.2,4.4,4.1,7.1c0.9,2.7,1.3,5.5,1.3,8.5v11.1h-15V25.3c0-2.1-0.5-4-1.6-5.7
		c-1.1-1.7-3.1-2.6-6-2.6s-4.9,0.9-6.1,2.6c-1.2,1.7-1.8,3.6-1.8,5.7v50.4c0,2.3,0.6,4.2,1.7,5.9c1.1,1.6,3.2,2.4,6.1,2.4
		c2.5,0,4.3-0.8,5.6-2.4c1.3-1.6,1.9-3.6,1.9-5.9V62.9h-8v-0.4c0-3.8,1-6.9,3-9.5c2-2.5,5.1-3.8,9.4-3.8H604.6z"/>
	<path class="st0" d="M614.6,41.5V23.8c0-2.6,0.4-5.2,1.3-7.7c0.9-2.5,2.2-4.7,4.1-6.7c1.8-1.9,4.2-3.5,7.1-4.6
		c2.9-1.1,6.3-1.7,10.2-1.7c4,0,7.5,0.6,10.4,1.8s5.3,2.8,7.1,4.8c1.8,2,3.2,4.4,4,7.1c0.8,2.7,1.3,5.5,1.3,8.5v4.6
		c0,2.5-0.2,4.6-0.5,6.5c-0.3,1.9-0.9,3.8-1.8,5.6c-0.9,1.8-2.1,3.8-3.6,5.8c-1.5,2-3.4,4.4-5.7,7.1l-12.8,15.3
		c-1.9,2.4-3.2,4.3-3.8,5.9c-0.6,1.5-0.9,3.6-0.9,6.1v0.7h29.1v13.7H616V83.8c0-2.4,0.1-4.5,0.3-6.4c0.2-1.9,0.7-3.7,1.3-5.5
		c0.7-1.8,1.6-3.6,2.7-5.4c1.1-1.8,2.7-3.9,4.6-6.1l11.6-13.6c1.6-1.8,2.9-3.4,3.8-4.7c1-1.3,1.7-2.5,2.3-3.6c0.6-1.1,1-2.4,1.2-3.6
		c0.2-1.3,0.3-2.8,0.3-4.6v-5.7c0-1.8-0.5-3.6-1.5-5.3c-1-1.7-2.9-2.5-5.8-2.5c-2.9,0-4.8,0.8-5.8,2.5c-1,1.7-1.5,3.4-1.5,5.3v2.8
		c0,4.7-1.4,8.3-4.2,10.6c-2.8,2.3-6.3,3.4-10.4,3.4H614.6z"/>
	<path class="st0" d="M667.8,25.4c0-3,0.5-5.8,1.4-8.5c0.9-2.7,2.4-5,4.3-7.1c1.9-2,4.4-3.6,7.3-4.9c2.9-1.2,6.3-1.8,10.3-1.8
		s7.4,0.6,10.3,1.8c2.9,1.2,5.3,2.9,7.3,4.9c1.9,2,3.4,4.4,4.3,7.1c0.9,2.7,1.4,5.5,1.4,8.5v50.1c0,3-0.5,5.8-1.4,8.5
		c-0.9,2.7-2.4,5.1-4.3,7.1c-1.9,2.1-4.4,3.7-7.3,4.9c-2.9,1.2-6.3,1.8-10.3,1.8s-7.4-0.6-10.3-1.8c-2.9-1.2-5.3-2.9-7.3-4.9
		c-1.9-2-3.4-4.4-4.3-7.1c-0.9-2.7-1.4-5.5-1.4-8.5V25.4z M698.3,24.8c0-1.8-0.5-3.5-1.5-5.2c-1-1.7-2.9-2.6-5.8-2.6
		s-4.8,0.9-5.8,2.6c-1,1.7-1.5,3.5-1.5,5.2v51.4c0,1.8,0.5,3.5,1.5,5.2c1,1.7,2.9,2.6,5.8,2.6s4.8-0.9,5.8-2.6
		c1-1.7,1.5-3.4,1.5-5.2V24.8z"/>
	<path class="st0" d="M744.3,4.3v93h-0.4c-4.4,0-8.1-1.2-11-3.6c-2.9-2.4-4.4-6.1-4.4-11V18h-8.7V4.3H744.3z"/>
	<path class="st0" d="M801.1,76.2c0,3-0.5,5.8-1.4,8.4s-2.4,4.9-4.3,6.9c-1.9,1.9-4.4,3.5-7.3,4.6s-6.3,1.7-10.3,1.7
		s-7.4-0.6-10.3-1.7s-5.3-2.7-7.3-4.7c-1.9-2-3.4-4.3-4.3-6.9c-0.9-2.6-1.4-5.4-1.4-8.4v-10c0-3.4,0.7-6.6,2-9.6
		c1.3-3,3.6-5.5,6.9-7.4c-3.3-1.8-5.5-4.3-6.9-7.3c-1.3-3-2-6.3-2-9.7v-7.4c0-3,0.5-5.8,1.4-8.4c0.9-2.6,2.4-4.9,4.3-6.9
		c1.9-2,4.4-3.5,7.3-4.7c2.9-1.1,6.3-1.7,10.3-1.7s7.4,0.6,10.3,1.7c2.9,1.1,5.3,2.7,7.3,4.6c1.9,1.9,3.4,4.2,4.3,6.9
		s1.4,5.5,1.4,8.4v7.4c0,3.4-0.7,6.7-2,9.7c-1.3,3-3.6,5.5-6.9,7.3c3.3,1.8,5.5,4.3,6.9,7.3c1.3,3,2,6.3,2,9.7V76.2z M785.2,24.8
		c0-1.8-0.5-3.5-1.5-5.2c-1-1.7-2.9-2.6-5.8-2.6s-4.8,0.9-5.8,2.6c-1,1.7-1.5,3.5-1.5,5.2v9.4c0,1.8,0.5,3.5,1.5,5.2
		c1,1.7,2.9,2.6,5.8,2.6s4.8-0.9,5.8-2.6c1-1.7,1.5-3.4,1.5-5.2V24.8z M785.2,64.2c0-1.8-0.5-3.5-1.5-5.2c-1-1.7-2.9-2.6-5.8-2.6
		s-4.8,0.9-5.8,2.6c-1,1.7-1.5,3.5-1.5,5.2v12c0,1.8,0.5,3.5,1.5,5.2c1,1.7,2.9,2.6,5.8,2.6s4.8-0.9,5.8-2.6c1-1.7,1.5-3.4,1.5-5.2
		V64.2z"/>
</g>
</svg>
