<?xml version="1.0" encoding="utf-8"?>
<!-- Generator: Adobe Illustrator 22.0.1, SVG Export Plug-In . SVG Version: 6.00 Build 0)  -->
<svg version="1.1" id="Calque_1" xmlns="http://www.w3.org/2000/svg" xmlns:xlink="http://www.w3.org/1999/xlink" x="0px" y="0px"
	 viewBox="0 0 808 60.7" style="enable-background:new 0 0 808 60.7;" xml:space="preserve">
<style type="text/css">
	.st0{fill:#FFFFFF;}
	.st1{clip-path:url(#SVGID_2_);fill:#FFFFFF;}
	.st2{clip-path:url(#SVGID_4_);fill:#FFFFFF;}
	.st3{clip-path:url(#SVGID_6_);fill:#FFFFFF;}
</style>
<g>
	<rect x="707.6" y="21.2" class="st0" width="100.4" height="5.5"/>
	<rect x="8" y="21.2" class="st0" width="108.4" height="5.5"/>
	<g>
		<g>
			<defs>
				<rect id="SVGID_1_" x="8" y="0.7" width="800" height="46.6"/>
			</defs>
			<clipPath id="SVGID_2_">
				<use xlink:href="#SVGID_1_"  style="overflow:visible;"/>
			</clipPath>
			<path class="st1" d="M560.1,44.8l2.7,2h1.6V23.1h-9v5h3.3v10.7c0,2.2-1,3.3-2.8,3.3c-2.2,0-2.8-1.6-2.8-3.3V9.2
				c0-1.7,0.6-3.3,2.7-3.3c2.1,0,2.7,1.6,2.7,3.3v7.2h5.7V9.6c0-5.4-2.9-8.9-8.4-8.9c-5.7,0-8.9,3.6-8.9,8.9v29.7c0,5.2,3.3,8,7.6,8
				C557.4,47.3,559.4,45.9,560.1,44.8 M588.6,46.8h5.8l-4.8-45.7h-8.3l-5,45.7h5.6l0.8-8.1h5.2L588.6,46.8z M583.2,33.5l2.2-23.6
				l2,23.6H583.2z M612.3,33.6c0-6-0.1-11.8-0.4-19.3l4.4,32.6h5.6l4.4-32.6c-0.3,7.5-0.4,13.3-0.4,19.3v13.3h5.7V1.1h-8.8L619.1,31
				l-3.7-29.9h-8.8v45.7h5.7V33.6z M644.7,46.8h16.1v-5.3h-10V25.7h6.5v-5.3h-6.5v-14h9.7V1.1h-15.8V46.8z M689.3,16.4V8.9
				c0-4.8-2.7-8.2-8.3-8.2c-5.3,0-8.6,3.3-8.6,8.6V13c0,5,1.6,8.4,4.8,11.3l3.7,3.5c2,1.8,2.7,3.7,2.7,6.9v4.4c0,1.9-1,2.9-2.7,2.9
				c-1.9,0-2.8-1.2-2.8-3.1v-8.4h-5.7v8.2c0,5.2,3.1,8.6,8.6,8.6s8.8-3.7,8.8-8.9v-4.5c0-5.1-1.8-7.9-4.6-10.6l-3.9-3.7
				c-1.8-1.7-2.8-3.7-2.8-6.6V8.6c0-1.7,0.8-2.8,2.5-2.8c1.8,0,2.6,1.2,2.6,3.1v7.4h5.7V16.4z"/>
		</g>
		<g>
			<defs>
				<rect id="SVGID_3_" x="8" y="0.7" width="800" height="46.6"/>
			</defs>
			<clipPath id="SVGID_4_">
				<use xlink:href="#SVGID_3_"  style="overflow:visible;"/>
			</clipPath>
			<path class="st2" d="M143,47.3c5.6,0,8.9-3.5,8.9-8.9V9.6c0-5.4-3.3-8.9-8.9-8.9c-5.6,0-8.9,3.5-8.9,8.9v28.7
				C134.2,43.8,137.4,47.3,143,47.3 M143,42c-2.2,0-2.7-1.6-2.7-3.3V9.2c0-1.7,0.6-3.3,2.7-3.3c2.2,0,2.7,1.6,2.7,3.3v29.5
				C145.8,40.4,145.2,42,143,42 M179.6,46.8v-5.3h-8.8V1.1h-6.1v45.7H179.6z M200.1,46.8V27.9L207,1.1h-6.2l-3.7,17.4l-3.4-17.4
				h-6.6l6.9,27v18.8h6.1V46.8z M224.8,33.6c0-6-0.1-11.8-0.4-19.3l4.4,32.6h5.6l4.4-32.6c-0.3,7.5-0.4,13.3-0.4,19.3v13.3h5.7V1.1
				h-8.8L231.6,31l-3.7-29.9h-8.8v45.7h5.7V33.6z M263.3,46.8V25.7h2.2c5.3,0,9.1-3,9.1-9.9v-5c0-6.9-4.1-9.8-9.1-9.8h-8.2v45.7
				L263.3,46.8L263.3,46.8z M263.3,20.4v-14h1.8c2.2,0,3.5,1.3,3.5,4.4V16c0,3.1-1.3,4.4-3.5,4.4H263.3z M292.9,1.1h-6.1v45.7h6.1
				V1.1z M317.3,30.5v8.2c0,1.7-0.7,3.3-2.7,3.3c-2.2,0-2.7-1.6-2.7-3.3V9.2c0-1.7,0.6-3.3,2.7-3.3s2.7,1.6,2.7,3.3v7.2h5.7V9.6
				c0-5.4-2.9-8.9-8.4-8.9c-5.7,0-8.9,3.6-8.9,8.9v28.7c0,5.4,3.2,8.9,8.9,8.9c5.6,0,8.4-3.6,8.4-8.9v-7.8
				C323,30.5,317.3,30.5,317.3,30.5z"/>
		</g>
		<g>
			<defs>
				<rect id="SVGID_5_" x="8" y="0.7" width="800" height="46.6"/>
			</defs>
			<clipPath id="SVGID_6_">
				<use xlink:href="#SVGID_5_"  style="overflow:visible;"/>
			</clipPath>
			<path class="st3" d="M369.2,46.8h6.7l4.8-45.7h-5.8L372.4,30L369,1.1h-5.4L360.3,30L358,1.1h-6.3l4.8,45.7h6.4l3.2-29.5
				L369.2,46.8z M399,1.1h-6.1v45.7h6.1V1.1z M417.6,32.3c0-5.2-0.2-11.6-0.5-16.6l6,31.1h7.3V1.1h-5.8v14.5
				c0,5.2,0.3,11.6,0.5,16.6l-6-31.1h-7.3v45.7h5.7L417.6,32.3L417.6,32.3z M454.4,46.8V6.4h5.6V1.1h-17.3v5.3h5.6v40.4
				C448.3,46.8,454.4,46.8,454.4,46.8z M472.1,46.8h16.1v-5.3h-10V25.7h6.5v-5.3h-6.5v-14h9.7V1.1h-15.8L472.1,46.8L472.1,46.8z
				 M512.1,46.8h6.1c-0.1-0.3-0.4-2.8-0.5-5.9l-0.3-10.4c-0.2-3.7-1.4-6.3-4.1-7.2c3.3-1.4,4.5-4.6,4.5-8.4v-4.6
				c0-6.9-4.1-9.2-9.1-9.2h-8.3v45.7h6.1V25.7h1c2.4,0,3.8,1.3,3.9,4.5l0.2,9.9C511.5,42.9,511.8,45.7,512.1,46.8 M506.4,6.3h1.9
				c2.2,0,3.5,1.4,3.5,4.2v5.6c0,2.9-1.4,4.4-3.5,4.4h-1.8V6.3H506.4z"/>
		</g>
	</g>
</g>
</svg>
