<?xml version="1.0" encoding="utf-8"?>
<!-- Generator: Adobe Illustrator 22.0.1, SVG Export Plug-In . SVG Version: 6.00 Build 0)  -->
<svg version="1.1" id="Layer_1" xmlns="http://www.w3.org/2000/svg" xmlns:xlink="http://www.w3.org/1999/xlink" x="0px" y="0px"
	 viewBox="0 0 804.6 609.8" style="enable-background:new 0 0 804.6 609.8;" xml:space="preserve">
<style type="text/css">
	.st0{fill:url(#SVGID_2_);}
	.st1{fill:none;}
</style>
<g>
	<g>
		
			<linearGradient id="SVGID_2_" gradientUnits="userSpaceOnUse" x1="16.5" y1="307.15" x2="890.0274" y2="307.15" gradientTransform="matrix(1 0 0 -1 0 612)">
			<stop  offset="0" style="stop-color:#37C8F0"/>
			<stop  offset="1" style="stop-color:#3F29A5"/>
		</linearGradient>
		<path id="SVGID_1_" class="st0" d="M16.5,438.6c0,60,12.2,117.1,34.1,169.2l207.7-207.7l59.6,59.6l216.6-216.6L793,501.6V164.1
			C712.9,65.1,590.5,1.9,453.3,1.9C212.1,1.9,16.5,197.4,16.5,438.6"/>
	</g>
	<path class="st1" d="M16.5,438.6c0,60,12.2,117.1,34.1,169.2l207.7-207.7l59.6,59.6l216.6-216.6L793,501.6V164.1
		C712.9,65.1,590.5,1.9,453.3,1.9C212.1,1.9,16.5,197.4,16.5,438.6"/>
</g>
</svg>
