<?xml version="1.0" encoding="utf-8"?>
<!-- Generator: Adobe Illustrator 22.0.1, SVG Export Plug-In . SVG Version: 6.00 Build 0)  -->
<svg version="1.1" xmlns="http://www.w3.org/2000/svg" xmlns:xlink="http://www.w3.org/1999/xlink" x="0px" y="0px"
	 viewBox="0 0 221.5 74.3" style="enable-background:new 0 0 221.5 74.3;" xml:space="preserve">
<style type="text/css">
	.st0{fill:#FFFFFF;}
</style>
<g id="RINGS">
	<path class="st0" d="M131.7,63.8c-0.3,0-0.6,0-0.8,0c-0.4-4.1-3.3-7.5-7.2-8.5c0.3-4.2,3.8-7.6,8-7.6c4.5,0,8.1,3.6,8.1,8.1
		C139.8,60.2,136.1,63.8,131.7,63.8 M123.7,56.9c2.9,0.9,5,3.4,5.5,6.5C126.3,62.5,124.2,60,123.7,56.9 M121.2,72.7
		c-4.3,0-7.8-3.3-8-7.6c3.9-1,6.8-4.4,7.2-8.5c0.3,0,0.6,0,0.8,0s0.6,0,0.8,0c0.4,4.1,3.3,7.5,7.2,8.5
		C129,69.3,125.5,72.7,121.2,72.7 M118.7,56.9c-0.5,3-2.6,5.5-5.5,6.5C113.7,60.3,115.8,57.9,118.7,56.9 M109.9,63.7
		c-0.4-4.1-3.3-7.5-7.2-8.5c0.3-4.2,3.8-7.6,8-7.6c4.3,0,7.8,3.3,8,7.6c-3.9,1-6.8,4.4-7.2,8.5c-0.3,0-0.6,0-0.8,0
		C110.4,63.8,110.2,63.8,109.9,63.7 M102.8,56.9c2.9,0.9,5,3.4,5.5,6.5C105.4,62.5,103.2,60,102.8,56.9 M100.3,72.7
		c-4.3,0-7.8-3.3-8-7.6c3.9-1,6.8-4.4,7.2-8.5c0.3,0,0.6,0,0.8,0c0.3,0,0.6,0,0.8,0c0.4,4.1,3.3,7.5,7.2,8.5
		C108,69.3,104.5,72.7,100.3,72.7 M97.7,56.9c-0.5,3-2.6,5.5-5.5,6.5C92.7,60.3,94.9,57.9,97.7,56.9 M81.7,55.7
		c0-4.5,3.6-8.1,8.1-8.1c4.3,0,7.8,3.3,8,7.6c-3.9,1-6.8,4.4-7.2,8.5c-0.3,0-0.6,0-0.8,0C85.3,63.8,81.7,60.2,81.7,55.7 M131.7,46
		c-5.1,0-9.3,3.9-9.6,8.9c-0.3,0-0.6,0-0.8,0s-0.6,0-0.8,0c-0.4-5-4.6-8.9-9.6-8.9c-5.1,0-9.3,3.9-9.6,8.9c-0.3,0-0.6,0-0.8,0
		s-0.6,0-0.8,0C99,50,94.9,46,89.8,46c-5.3,0-9.7,4.3-9.7,9.7c0,5.3,4.3,9.7,9.7,9.7c0.3,0,0.6,0,0.8,0c0.4,5,4.6,8.9,9.6,8.9
		c5.1,0,9.3-3.9,9.6-8.9c0.3,0,0.6,0,0.8,0c0.3,0,0.6,0,0.8,0c0.4,5,4.6,8.9,9.6,8.9s9.3-3.9,9.6-8.9c0.3,0,0.6,0,0.8,0
		c5.3,0,9.7-4.3,9.7-9.7C141.4,50.4,137,46,131.7,46"/>
</g>
<g id="HOTO">
	<path class="st0" d="M58.4,31.7V27h-1.2v10.8h1.2v-4.9h2v4.9h1.2V27h-1.2v4.7H58.4z M65.9,28c0.6,0,0.8,0.3,0.8,0.8v7.1
		c0,0.6-0.3,0.8-0.8,0.8h-0.4c-0.6,0-0.8-0.3-0.8-0.8v-7.1c0-0.6,0.3-0.8,0.8-0.8H65.9z M65.9,37.9c1.3,0,2-0.7,2-2v-7
		c0-1.3-0.7-2-2-2h-0.5c-1.3,0-2,0.7-2,2v7c0,1.3,0.7,2,2,2H65.9z M71.7,27h-1.9v10.8h1.2v-8.9l1.5,8.9h1.3l1.5-8.9v8.9h1.2V27h-1.9
		l-1.4,8.5L71.7,27z M78.2,27v10.8h3.4v-1.1h-2.2v-3.8h2.1v-1.1h-2.1v-3.6h2.2V27H78.2z M88.5,28c0.6,0,0.8,0.3,0.8,0.8v7.1
		c0,0.6-0.3,0.8-0.8,0.8h-0.4c-0.6,0-0.8-0.3-0.8-0.8v-7.1c0-0.6,0.3-0.8,0.8-0.8H88.5z M88.5,37.9c1.3,0,2-0.7,2-2v-7
		c0-1.3-0.7-2-2-2H88c-1.3,0-2,0.7-2,2v7c0,1.3,0.7,2,2,2H88.5z M92.4,27v10.8h1.2v-4.9h2v-1.1h-2v-3.6h2.1V27H92.4z M102.5,37.8
		v-9.7h1.6V27h-4.5v1.1h1.6v9.7H102.5z M107,31.7V27h-1.2v10.8h1.2v-4.9h2v4.9h1.2V27H109v4.7H107z M112.1,27v10.8h3.4v-1.1h-2.2
		v-3.8h2.1v-1.1h-2.1v-3.6h2.2V27H112.1z M122.3,28c0.6,0,0.8,0.3,0.8,0.8v7.1c0,0.6-0.3,0.8-0.8,0.8h-0.4c-0.6,0-0.8-0.3-0.8-0.8
		v-7.1c0-0.6,0.3-0.8,0.8-0.8H122.3z M122.3,37.9c1.3,0,2-0.7,2-2v-7c0-1.3-0.7-2-2-2h-0.5c-1.3,0-2,0.7-2,2v7c0,1.3,0.7,2,2,2
		H122.3z M126.2,27v10.8h3.3v-1.1h-2V27H126.2z M132.4,32.3l-1.1-5.3H130l1.7,7.1v3.7h1.2V34l1.7-7.1h-1.2L132.4,32.3z M138.3,27
		h-1.9v10.8h1.2v-8.9l1.5,8.9h1.3l1.5-8.9v8.9h1.2V27h-1.9l-1.4,8.5L138.3,27z M146.9,28.1c0.6,0,0.8,0.3,0.8,0.8v2.9
		c0,0.6-0.3,0.8-0.8,0.8h-0.8v-4.5H146.9z M146.1,33.7h0.9c1.3,0,2-0.7,2-2V29c0-1.3-0.7-2-2-2h-2.1v10.8h1.2V33.7z M152,27h-1.2
		v10.8h1.2V27z M157,33.6v2.3c0,0.6-0.3,0.8-0.8,0.8h-0.3c-0.6,0-0.8-0.3-0.8-0.8v-7.1c0-0.6,0.3-0.8,0.8-0.8h0.3
		c0.6,0,0.8,0.3,0.8,0.8v2h1.2v-1.9c0-1.3-0.6-2-2-2h-0.4c-1.3,0-2,0.7-2,2v7c0,1.3,0.7,2,2,2h0.4c1.3,0,2-0.7,2-2v-2.2H157z
		 M164.3,34.3c0-0.9-0.2-1.4-1-2l-1.5-1.1c-0.4-0.3-0.6-0.5-0.6-1v-1.4c0-0.6,0.3-0.8,0.8-0.8h0.2c0.6,0,0.8,0.3,0.8,0.8v2h1.2v-1.9
		c0-1.3-0.6-2-2-2H162c-1.3,0-2,0.7-2,2v1.3c0,0.9,0.2,1.4,1,2l1.5,1.1c0.4,0.3,0.5,0.5,0.5,1v1.6c0,0.6-0.3,0.8-0.8,0.8H162
		c-0.6,0-0.8-0.3-0.8-0.8v-2.3H160v2.3c0,1.3,0.6,2,2,2h0.3c1.3,0,2-0.7,2-2V34.3z"/>
</g>
<g id="ESP">
	<polygon class="st0" points="8.6,7.1 0,7.1 5.5,10.8 0.6,16.6 9,13 14.5,16.6 14.5,10.7 22.9,7.1 14.5,7.1 14.5,0.3 	"/>
	<path class="st0" d="M24.9,3.6c0.3,0,0.5-0.2,0.5-0.5V0.8c0-0.3-0.2-0.5-0.5-0.5h-9v3.4L24.9,3.6z"/>
	<path class="st0" d="M24.9,16.7c0.3,0,0.5-0.2,0.5-0.5v-2.3c0-0.3-0.2-0.5-0.5-0.5h-9v3.4L24.9,16.7z"/>
	<path class="st0" d="M145.4,0.2h-11.2c-0.3,0-0.5,0.2-0.5,0.5v2.3c0,0.3,0.2,0.5,0.5,0.5h3.9v12.5c0,0.3,0.2,0.5,0.5,0.5h2.3
		c0.3,0,0.5-0.2,0.5-0.5V3.6h3.9c0.3,0,0.5-0.2,0.5-0.5V0.8C145.9,0.5,145.7,0.2,145.4,0.2"/>
	<path class="st0" d="M97.5,7.3c-0.1,0.3-0.3,0.6-0.5,0.8c-0.2,0.2-0.5,0.4-0.7,0.5c-0.3,0.1-0.8,0.2-1.8,0.2h-2.6V3.6h3.4
		c0.4,0,0.7,0.1,1,0.2c0.3,0.1,0.6,0.3,0.8,0.5c0.2,0.2,0.4,0.5,0.5,0.8c0.1,0.3,0.2,0.7,0.2,1.1C97.7,6.6,97.6,6.9,97.5,7.3
		 M100.7,3.9c-0.3-0.7-0.7-1.4-1.2-1.9c-0.5-0.5-1.2-1-1.9-1.3c-0.7-0.3-1.6-0.5-2.5-0.5H89c-0.3,0-0.5,0.2-0.5,0.5v15.4
		c0,0.3,0.2,0.5,0.5,0.5h2.3c0.3,0,0.5-0.2,0.5-0.5l0-3.9h3.3c0.9,0,1.8-0.2,2.5-0.5c0.7-0.3,1.4-0.7,1.9-1.3
		c0.5-0.5,0.9-1.2,1.2-1.9c0.3-0.7,0.4-1.6,0.4-2.4C101.1,5.4,100.9,4.6,100.7,3.9"/>
	<path class="st0" d="M77.7,5c0,0.3,0.1,0.5,0.2,0.7c0.1,0.2,0.4,0.4,0.6,0.5c0.3,0.2,0.6,0.3,1,0.4c0.4,0.1,0.9,0.2,1.3,0.3
		c0.8,0.1,1.5,0.3,2.3,0.5c0.8,0.2,1.5,0.5,2,0.8c0.6,0.4,1.1,0.9,1.4,1.5c0.3,0.6,0.5,1.4,0.5,2.4c0,0.9-0.3,1.7-0.7,2.4
		c-0.4,0.6-1,1.1-1.6,1.5c-0.6,0.4-1.3,0.7-2.1,0.8c-0.8,0.1-1.6,0.2-2.4,0.2c-1.9-0.1-4.6-1.2-6-3c-0.1-0.2-0.2-0.4,0.1-0.7
		c0.3-0.3,1.7-1.7,1.7-1.7c0.3-0.3,0.6-0.1,0.7,0.1c0.8,1.2,2.4,2.1,3.7,2.1c0.7,0,0.7,0,1.2-0.1c0.4,0,0.7-0.1,1-0.3
		c0.3-0.1,0.5-0.3,0.7-0.5c0.2-0.2,0.3-0.5,0.3-0.9c0-0.4-0.1-0.6-0.2-0.9c-0.2-0.2-0.4-0.4-0.7-0.6c-0.3-0.2-0.7-0.3-1.1-0.4
		c-0.5-0.1-0.9-0.2-1.3-0.2c-0.7-0.1-1.4-0.2-2.1-0.4c-0.7-0.2-1.4-0.5-1.9-0.9c-0.6-0.4-1-0.9-1.4-1.5c-0.3-0.6-0.5-1.3-0.5-2.1
		c0-0.9,0.3-1.6,0.6-2.3c0.4-0.6,0.9-1.2,1.5-1.5c0.6-0.4,1.3-0.7,2-0.8c1.5-0.3,2.9-0.3,4.4,0.2c1.6,0.5,2.8,1.7,3.4,2.6
		c0.1,0.2,0.2,0.4,0,0.7c-0.2,0.3-1.6,1.6-1.6,1.6c-0.3,0.3-0.6,0.2-0.8,0c-0.9-1.3-2-1.8-3.2-1.9C79.3,3.2,77.8,3.5,77.7,5"/>
	<path class="st0" d="M69.4,10.7c-0.3,0.6-0.6,1.2-1.1,1.6c-0.4,0.4-1,0.8-1.6,1c-0.6,0.2-1.2,0.3-1.9,0.3c-0.7,0-1.3-0.1-1.9-0.3
		c-0.6-0.2-1.1-0.5-1.5-1c-0.4-0.4-0.8-1-1-1.6c-0.3-0.6-0.4-1.4-0.4-2.3c0-0.9,0.1-1.6,0.4-2.3c0.3-0.6,0.6-1.2,1-1.6
		c0.4-0.4,1-0.8,1.5-1c0.6-0.2,1.2-0.3,1.9-0.3c0.7,0,1.3,0.1,1.9,0.3c0.6,0.2,1.1,0.6,1.5,1c0.4,0.4,0.8,1,1.1,1.6
		c0.3,0.6,0.4,1.4,0.4,2.2C69.7,9.3,69.6,10.1,69.4,10.7 M70.7,2.2C69.9,1.5,69,0.9,68,0.6C67,0.2,66,0,64.9,0
		c-1.1,0-2.2,0.2-3.2,0.6c-1,0.4-1.9,0.9-2.7,1.7c-0.8,0.7-1.4,1.6-1.8,2.7c-0.5,1-0.7,2.2-0.7,3.6c0,1.3,0.2,2.5,0.7,3.6
		c0.4,1,1.1,1.9,1.8,2.7c0.8,0.7,1.7,1.3,2.7,1.7c1,0.4,2.1,0.6,3.2,0.6c1.2,0,2.4-0.2,3.4-0.6c1-0.4,1.9-1,2.7-1.7
		c0.7-0.7,1.3-1.6,1.7-2.7c0.4-1,0.6-2.2,0.6-3.4c0-1.3-0.2-2.5-0.7-3.6C72.1,3.9,71.5,3,70.7,2.2"/>
	<path class="st0" d="M115.1,10.7c-0.3,0.6-0.6,1.2-1.1,1.6c-0.4,0.4-1,0.8-1.6,1c-0.6,0.2-1.2,0.3-1.9,0.3c-0.7,0-1.3-0.1-1.9-0.3
		c-0.6-0.2-1.1-0.5-1.5-1c-0.4-0.4-0.8-1-1-1.6c-0.3-0.6-0.4-1.4-0.4-2.3c0-0.9,0.1-1.6,0.4-2.3c0.3-0.6,0.6-1.2,1-1.6
		c0.4-0.4,1-0.8,1.5-1c0.6-0.2,1.2-0.3,1.9-0.3c0.7,0,1.3,0.1,1.9,0.3c0.6,0.2,1.1,0.6,1.5,1c0.4,0.4,0.8,1,1.1,1.6
		c0.3,0.6,0.4,1.4,0.4,2.2C115.5,9.3,115.4,10.1,115.1,10.7 M116.4,2.2c-0.8-0.7-1.7-1.3-2.7-1.7c-1-0.4-2.1-0.6-3.2-0.6
		c-1.1,0-2.2,0.2-3.2,0.6c-1,0.4-1.9,0.9-2.7,1.7c-0.8,0.7-1.4,1.6-1.8,2.7c-0.5,1-0.7,2.2-0.7,3.6c0,1.3,0.2,2.5,0.7,3.6
		c0.4,1,1.1,1.9,1.8,2.7c0.8,0.7,1.7,1.3,2.7,1.7c1,0.4,2.1,0.6,3.2,0.6c1.2,0,2.4-0.2,3.4-0.6c1-0.4,1.9-1,2.7-1.7
		c0.7-0.7,1.3-1.6,1.7-2.7c0.4-1,0.6-2.2,0.6-3.4c0-1.3-0.2-2.5-0.7-3.6C117.8,3.9,117.2,3,116.4,2.2"/>
	<path class="st0" d="M39.7,0.2h-2.3c-0.3,0-0.5,0.2-0.5,0.5v10.2c0,0.4-0.1,0.8-0.2,1.1c-0.1,0.3-0.3,0.6-0.6,0.8
		c-0.3,0.2-0.6,0.4-0.9,0.5c-0.4,0.1-1,0.2-1.4,0.2c-0.4,0-1.1-0.1-1.4-0.2c-0.4-0.1-0.7-0.3-0.9-0.5c-0.3-0.2-0.4-0.5-0.6-0.8
		c-0.1-0.3-0.2-0.7-0.2-1.1V0.8c0-0.3-0.2-0.5-0.5-0.5h-2.3c-0.3,0-0.5,0.2-0.5,0.5V11c0,0.9,0.2,1.8,0.5,2.5
		c0.3,0.7,0.8,1.3,1.4,1.9c0.6,0.5,1.3,0.9,2.1,1.1c0.8,0.2,1.6,0.4,2.5,0.4c0.9,0,1.7-0.1,2.5-0.4c0.8-0.3,1.5-0.6,2.1-1.1
		c0.6-0.5,1.1-1.1,1.4-1.9c0.3-0.7,0.5-1.6,0.5-2.5V0.8C40.2,0.5,40,0.2,39.7,0.2"/>
	<path class="st0" d="M55.9,15.8l-3.7-4.6c0,0,3-1.1,3-4.9c0-0.8-0.1-1.6-0.4-2.3c-0.3-0.7-0.7-1.4-1.2-1.9c-0.5-0.5-1.2-1-1.9-1.3
		c-0.7-0.3-1.6-0.5-2.5-0.5h-6.1c-0.3,0-0.5,0.2-0.5,0.5v15.4c0,0.3,0.2,0.5,0.5,0.5h2.3c0.3,0,0.5-0.2,0.5-0.5l0-12.5h3.4
		c0.4,0,0.7,0.1,1,0.2c0.3,0.1,0.6,0.3,0.8,0.5c0.2,0.2,0.4,0.5,0.5,0.8c0.1,0.3,0.2,0.7,0.2,1.1c0,0.4-0.1,0.7-0.2,1.1
		c-0.1,0.3-0.3,0.6-0.5,0.8c-0.2,0.2-0.5,0.4-0.7,0.5c-0.3,0.1-0.8,0.2-1.8,0.2h-1.4c-0.3,0-0.5,0.3-0.3,0.6l5.3,7
		c0.1,0.1,0.3,0.2,0.4,0.2h2.9C56,16.7,56.3,16.3,55.9,15.8"/>
	<path class="st0" d="M133.8,15.8l-3.7-4.6c0,0,3-1.1,3-4.9c0-0.8-0.1-1.6-0.4-2.3c-0.3-0.7-0.7-1.4-1.2-1.9c-0.5-0.5-1.2-1-1.9-1.3
		c-0.7-0.3-1.6-0.5-2.5-0.5h-6.1c-0.3,0-0.5,0.2-0.5,0.5v15.4c0,0.3,0.2,0.5,0.5,0.5h2.3c0.3,0,0.5-0.2,0.5-0.5l0-12.5h3.4
		c0.4,0,0.7,0.1,1,0.2c0.3,0.1,0.6,0.3,0.8,0.5c0.2,0.2,0.4,0.5,0.5,0.8c0.1,0.3,0.2,0.7,0.2,1.1c0,0.4-0.1,0.7-0.2,1.1
		c-0.1,0.3-0.3,0.6-0.5,0.8c-0.2,0.2-0.5,0.4-0.7,0.5c-0.3,0.1-0.8,0.2-1.8,0.2h-1.4c-0.3,0-0.5,0.3-0.3,0.6l5.3,7
		c0.1,0.1,0.3,0.2,0.4,0.2h2.9C134,16.7,134.2,16.3,133.8,15.8"/>
	<polygon class="st0" points="179.9,9.8 182.3,9.8 181.1,6.9 	"/>
	<path class="st0" d="M161.3,5.2h-2.4v3.6h2.4c1,0,1.7-0.8,1.7-1.8C163,6,162.4,5.2,161.3,5.2"/>
	<path class="st0" d="M217.3,14.4h-2.1c-0.1,0-0.3-0.1-0.4-0.2l-3.7-4.9c-0.1-0.2,0-0.4,0.2-0.4h1c0.7,0,1.1-0.1,1.3-0.1
		c0.2-0.1,0.4-0.2,0.5-0.4c0.2-0.2,0.3-0.4,0.4-0.6c0.1-0.2,0.1-0.5,0.1-0.7c0-0.3,0-0.5-0.1-0.7c-0.1-0.2-0.2-0.4-0.3-0.6
		c-0.1-0.2-0.3-0.3-0.5-0.4c-0.2-0.1-0.4-0.1-0.7-0.1h-2.4V14c0,0.2-0.2,0.4-0.4,0.4h-1.6c-0.2,0-0.4-0.2-0.4-0.4V3.2
		c0-0.2,0.2-0.4,0.4-0.4h4.2c2.4,0,4.2,1.7,4.2,4.1c0,2.7-2.1,3.6-2.1,3.6l2.7,3.3C217.7,14,217.6,14.4,217.3,14.4 M205.9,14
		c0,0.2-0.2,0.4-0.4,0.4h-7c-0.2,0-0.4-0.2-0.4-0.4V3.2c0-0.2,0.2-0.4,0.4-0.4h7c0.2,0,0.4,0.1,0.4,0.4l0,1.6c0,0.2-0.2,0.4-0.4,0.4
		h-5v2.2h4.2c0.2,0,0.4,0.2,0.4,0.4v1.6c0,0.2-0.2,0.4-0.4,0.4h-4.2V12h5c0.2,0,0.4,0.2,0.4,0.4L205.9,14z M196.3,3.3l-4,6.5V14
		c0,0.2-0.2,0.4-0.4,0.4h-1.6c-0.2,0-0.4-0.2-0.4-0.4V9.8l-4-6.5c-0.2-0.3,0-0.5,0.3-0.5h1.9c0.3,0,0.4,0,0.5,0.3l2.5,4.3l2.5-4.3
		c0.1-0.2,0.2-0.2,0.5-0.2h1.9C196.3,2.8,196.5,3,196.3,3.3 M186.5,14.4h-1.8c-0.3,0-0.4-0.1-0.5-0.4l-0.8-1.9h-4.5L178,14
		c-0.1,0.2-0.2,0.4-0.5,0.4h-1.8c-0.3,0-0.4-0.2-0.3-0.4l4.8-10.8c0.1-0.2,0.1-0.3,0.4-0.3h1c0.2,0,0.3,0.1,0.4,0.3l4.8,10.8
		C186.9,14.1,186.8,14.4,186.5,14.4 M173.9,14c0,0.2-0.2,0.4-0.4,0.4h-6c-0.2,0-0.4-0.2-0.4-0.4V3.2c0-0.2,0.2-0.4,0.4-0.4h1.6
		c0.2,0,0.4,0.2,0.4,0.4V12h4c0.2,0,0.4,0.2,0.4,0.4V14z M161.1,11.2h-2.2V14c0,0.2-0.2,0.4-0.4,0.4h-1.6c-0.2,0-0.4-0.2-0.4-0.4
		V3.2c0-0.2,0.2-0.4,0.4-0.4h4.2c2.9,0,4.3,2.1,4.3,4.2C165.4,9.1,164,11.2,161.1,11.2 M220.9,0h-68.3c-0.3,0-0.5,0.2-0.5,0.6v15.8
		c0,0.3,0.2,0.6,0.5,0.6h68.3c0.3,0,0.6-0.2,0.6-0.6V0.6C221.5,0.2,221.2,0,220.9,0"/>
</g>
</svg>
