<?xml version="1.0" encoding="utf-8"?>
<!-- Generator: Adobe Illustrator 22.0.1, SVG Export Plug-In . SVG Version: 6.00 Build 0)  -->
<svg version="1.1" id="Calque_1" xmlns="http://www.w3.org/2000/svg" xmlns:xlink="http://www.w3.org/1999/xlink" x="0px" y="0px"
	 viewBox="0 0 192.2 184.3" style="enable-background:new 0 0 192.2 184.3;" xml:space="preserve">
<style type="text/css">
	.st0{fill:#FFFFFF;}
</style>
<path class="st0" d="M19.3,179.7l3.6,2.7H25v-31.5H13.1v6.6h4.4v14.2c0,2.9-1.3,4.3-3.7,4.3c-2.9,0-3.7-2.1-3.7-4.3v-39.1
	c0-2.2,0.8-4.3,3.6-4.3s3.6,2.1,3.6,4.3v9.5h7.5v-9c0-7.1-3.8-11.8-11.2-11.8c-7.5,0-11.8,4.8-11.8,11.8v39.2
	c0,6.9,4.3,10.6,10,10.6C15.8,182.9,18.4,181.1,19.3,179.7 M57,182.3h7.7l-6.3-60.5h-11l-6.7,60.5H48l1-10.7h6.9L57,182.3z
	 M49.9,164.6l2.9-31.2l2.7,31.2H49.9z M88.3,164.8c0-8-0.1-15.6-0.5-25.6l5.9,43.1h7.4l5.9-43.1c-0.3,9.9-0.5,17.6-0.5,25.6v17.5
	h7.5v-60.5h-11.7l-4.9,39.6l-4.9-39.6H80.8v60.5h7.5V164.8z M131.2,182.3h21.3v-7h-13.2v-20.9h8.6v-7h-8.6v-18.6h12.9v-7h-20.9v60.5
	H131.2z M190.3,142.1v-9.9c0-6.4-3.6-10.9-11-10.9c-7,0-11.3,4.4-11.3,11.4v4.9c0,6.6,2.2,11.1,6.3,14.9l4.9,4.7
	c2.6,2.4,3.6,4.8,3.6,9.2v5.8c0,2.5-1.3,3.9-3.6,3.9c-2.5,0-3.7-1.6-3.7-4.1v-11.2H168v10.9c0,6.8,4.1,11.3,11.4,11.3
	c7.3,0,11.6-4.8,11.6-11.8v-6c0-6.7-2.3-10.5-6.1-14.1l-5.1-4.9c-2.3-2.2-3.7-4.9-3.7-8.7v-5.7c0-2.2,1.1-3.7,3.3-3.7
	c2.3,0,3.5,1.5,3.5,4.1v9.8h7.4V142.1z"/>
<path class="st0" d="M10,48.3c5.6,0,8.9-3.5,8.9-8.9V10.6c0-5.4-3.3-8.9-8.9-8.9s-8.9,3.5-8.9,8.9v28.7C1.2,44.8,4.4,48.3,10,48.3
	 M10,43c-2.2,0-2.7-1.6-2.7-3.3V10.2C7.3,8.5,7.9,7,10,7s2.7,1.6,2.7,3.3v29.5C12.8,41.5,12.2,43,10,43 M46.6,47.9v-5.3h-8.8V2.1
	h-6.1v45.7h14.9V47.9z M67.1,47.9v-19L74,2.1h-6.2l-3.7,17.4L60.7,2.1h-6.6l6.9,27v18.8H67.1z M91.8,34.6c0-6-0.1-11.8-0.4-19.3
	l4.4,32.6h5.6l4.4-32.6c-0.3,7.5-0.4,13.3-0.4,19.3v13.3h5.7V2.1h-8.8L98.6,32L94.9,2.1h-8.8v45.7h5.7
	C91.8,47.8,91.8,34.6,91.8,34.6z M130.3,47.9V26.8h2.2c5.3,0,9.1-3,9.1-9.9v-5c0-6.9-4.1-9.8-9.1-9.8h-8.2v45.7h6V47.9z M130.3,21.5
	v-14h1.8c2.2,0,3.5,1.3,3.5,4.4V17c0,3.1-1.3,4.4-3.5,4.4h-1.8V21.5z M159.9,2.1h-6.1v45.7h6.1V2.1z M184.3,31.5v8.2
	c0,1.7-0.7,3.3-2.7,3.3c-2.2,0-2.7-1.6-2.7-3.3V10.2c0-1.7,0.6-3.3,2.7-3.3c2.1,0,2.7,1.6,2.7,3.3v7.2h5.7v-6.8
	c0-5.4-2.9-8.9-8.4-8.9c-5.7,0-8.9,3.6-8.9,8.9v28.7c0,5.4,3.2,8.9,8.9,8.9c5.6,0,8.4-3.6,8.4-8.9v-7.8
	C190,31.5,184.3,31.5,184.3,31.5z"/>
<path class="st0" d="M22.5,110.6H30l5.4-51.7h-6.6L26,91.6l-3.8-32.7h-6.1l-3.8,32.7L9.9,58.9H2.8l5.5,51.7h7.2l3.6-33.3L22.5,110.6
	z M56.2,58.9h-6.9v51.7h6.9V58.9z M77.2,94.2c0-5.8-0.2-13.1-0.5-18.8l6.8,35.2h8.3V58.9h-6.5v16.4c0,5.8,0.3,13.1,0.6,18.8
	l-6.8-35.2h-8.3v51.7h6.4V94.2z M118.8,110.6V64.9h6.4v-6h-19.6v6h6.4v45.7C112,110.6,118.8,110.6,118.8,110.6z M138.9,110.6h18.2
	v-6h-11.3V86.7h7.3v-6h-7.3V64.9h11v-6h-17.9V110.6z M184.1,110.6h6.9c-0.1-0.4-0.4-3.2-0.6-6.7l-0.3-11.8c-0.2-4.1-1.6-7.1-4.7-8.1
	c3.7-1.6,5.1-5.2,5.1-9.5v-5.2c0-7.8-4.7-10.4-10.3-10.4h-9.4v51.7h6.9v-24h1.1c2.7,0,4.3,1.5,4.4,5.1l0.2,11.2
	C183.4,106.2,183.8,109.3,184.1,110.6 M177.7,64.7h2.1c2.5,0,3.9,1.6,3.9,4.8v6.3c0,3.3-1.6,4.9-4,4.9h-2.1v-16H177.7z"/>
</svg>
