<?xml version="1.0" encoding="utf-8"?>
<!-- Generator: Adobe Illustrator 22.0.1, SVG Export Plug-In . SVG Version: 6.00 Build 0)  -->
<svg version="1.1" id="Calque_1" xmlns="http://www.w3.org/2000/svg" xmlns:xlink="http://www.w3.org/1999/xlink" x="0px" y="0px"
	 viewBox="0 0 565 48.9" style="enable-background:new 0 0 565 48.9;" xml:space="preserve">
<style type="text/css">
	.st0{fill:#FFFFFF;}
</style>
<g>
	<g>
		<path class="st0" d="M429.3,45.4l2.7,2h1.6V23.7h-9v5h3.3v10.7c0,2.2-1,3.3-2.8,3.3c-2.2,0-2.8-1.6-2.8-3.3V9.8
			c0-1.7,0.6-3.3,2.7-3.3s2.7,1.6,2.7,3.3V17h5.7v-6.8c0-5.4-2.9-8.9-8.4-8.9c-5.7,0-8.9,3.6-8.9,8.9v29.7c0,5.2,3.3,8,7.6,8
			C426.6,47.9,428.6,46.6,429.3,45.4 M457.8,47.5h5.8l-4.8-45.7h-8.3l-5,45.7h5.6l0.8-8.1h5.2L457.8,47.5z M452.4,34.1l2.2-23.6
			l2,23.6H452.4z M481.5,34.2c0-6-0.1-11.8-0.4-19.3l4.4,32.6h5.6l4.4-32.6c-0.3,7.5-0.4,13.3-0.4,19.3v13.3h5.7V1.7H492l-3.7,29.9
			l-3.7-29.9h-8.8v45.7h5.7V34.2z M513.9,47.5H530v-5.3h-10V26.4h6.5v-5.3H520v-14h9.7V1.8h-15.8V47.5z M558.5,17V9.5
			c0-4.8-2.7-8.2-8.3-8.2c-5.3,0-8.6,3.3-8.6,8.6v3.7c0,5,1.6,8.4,4.8,11.3l3.7,3.5c2,1.8,2.7,3.7,2.7,6.9v4.4c0,1.9-1,2.9-2.7,2.9
			c-1.9,0-2.8-1.2-2.8-3.1v-8.4h-5.6v8.2c0,5.2,3.1,8.6,8.6,8.6s8.8-3.7,8.8-8.9v-4.5c0-5.1-1.8-7.9-4.6-10.6l-3.9-3.7
			c-1.8-1.7-2.8-3.7-2.8-6.6V9.3c0-1.7,0.8-2.8,2.5-2.8c1.8,0,2.6,1.2,2.6,3.1V17H558.5z"/>
		<path class="st0" d="M12.2,47.9c5.6,0,8.9-3.5,8.9-8.9V10.2c0-5.4-3.3-8.9-8.9-8.9s-8.9,3.5-8.9,8.9v28.7
			C3.4,44.4,6.6,47.9,12.2,47.9 M12.2,42.6c-2.2,0-2.7-1.6-2.7-3.3V9.8c0-1.7,0.6-3.3,2.7-3.3c2.2,0,2.7,1.6,2.7,3.3v29.5
			C15,41.1,14.4,42.6,12.2,42.6 M48.8,47.5v-5.3H40V1.7h-6.1v45.7L48.8,47.5L48.8,47.5z M69.3,47.5v-19l6.9-26.8H70l-3.7,17.4
			L62.9,1.7h-6.6l6.9,27v18.8C63.2,47.5,69.3,47.5,69.3,47.5z M94,34.2c0-6-0.1-11.8-0.4-19.3L98,47.5h5.6l4.4-32.6
			c-0.3,7.5-0.4,13.3-0.4,19.3v13.3h5.7V1.7h-8.8l-3.7,29.9L97.1,1.7h-8.8v45.7H94V34.2z M132.5,47.5V26.4h2.2c5.3,0,9.1-3,9.1-9.9
			v-5c0-6.9-4.1-9.8-9.1-9.8h-8.2v45.7L132.5,47.5L132.5,47.5z M132.5,21.1v-14h1.8c2.2,0,3.5,1.3,3.5,4.4v5.1
			c0,3.1-1.3,4.4-3.5,4.4L132.5,21.1L132.5,21.1z M162.1,1.7H156v45.7h6.1V1.7z M186.5,31.1v8.2c0,1.7-0.7,3.3-2.7,3.3
			c-2.2,0-2.7-1.6-2.7-3.3V9.8c0-1.7,0.6-3.3,2.7-3.3s2.7,1.6,2.7,3.3V17h5.7v-6.8c0-5.4-2.9-8.9-8.4-8.9c-5.7,0-8.9,3.6-8.9,8.9
			v28.7c0,5.4,3.2,8.9,8.9,8.9c5.6,0,8.4-3.6,8.4-8.9v-7.8C192.2,31.1,186.5,31.1,186.5,31.1z"/>
		<path class="st0" d="M238.4,47.5h6.7l4.8-45.7h-5.8l-2.5,28.8l-3.3-28.9h-5.4l-3.4,28.9l-2.2-28.9H221l4.8,45.7h6.4l3.2-29.5
			L238.4,47.5z M268.2,1.7h-6.1v45.7h6.1V1.7z M286.8,33c0-5.2-0.2-11.6-0.5-16.6l6,31.1h7.3V1.7h-5.8v14.5c0,5.2,0.3,11.6,0.5,16.6
			l-6-31.1H281v45.7h5.7L286.8,33L286.8,33z M323.6,47.5V7h5.6V1.7h-17.3V7h5.6v40.4L323.6,47.5L323.6,47.5z M341.3,47.5h16.1v-5.3
			h-10V26.4h6.5v-5.3h-6.5v-14h9.7V1.8h-15.8L341.3,47.5L341.3,47.5z M381.3,47.5h6.1c-0.1-0.3-0.4-2.8-0.5-5.9l-0.3-10.4
			c-0.2-3.7-1.4-6.3-4.1-7.2c3.3-1.4,4.5-4.6,4.5-8.4V11c0-6.9-4.1-9.2-9.1-9.2h-8.3v45.7h6.1V26.3h1c2.4,0,3.8,1.3,3.9,4.5l0.2,9.9
			C380.7,43.5,381,46.4,381.3,47.5 M375.6,6.9h1.9c2.2,0,3.5,1.4,3.5,4.2v5.6c0,2.9-1.4,4.4-3.5,4.4h-1.8V6.9H375.6z"/>
	</g>
</g>
</svg>
