<?xml version="1.0" encoding="utf-8"?>
<!-- Generator: Adobe Illustrator 22.0.1, SVG Export Plug-In . SVG Version: 6.00 Build 0)  -->
<svg version="1.1" id="Calque_1" xmlns="http://www.w3.org/2000/svg" xmlns:xlink="http://www.w3.org/1999/xlink" x="0px" y="0px"
	 viewBox="0 0 286 48.9" style="enable-background:new 0 0 286 48.9;" xml:space="preserve">
<style type="text/css">
	.st0{fill:#FFFFFF;}
</style>
<g>
	<path class="st0" d="M8.9,46.9L3.2,1.4h6.6l3.3,34.3l3.4-34.3h6.3l-5.8,45.5H8.9z"/>
	<path class="st0" d="M39.6,46.9V1.4h6.5v45.5H39.6z"/>
	<path class="st0" d="M71,46.9h-6.1V1.4h7.9l6.5,30.9c-0.1-2.5-0.3-5.2-0.4-8.2c-0.1-2.9-0.2-5.7-0.2-8.3V1.4h6.2v45.5H77L70.5,16
		c0.1,2.5,0.3,5.2,0.4,8.2c0.1,2.9,0.1,5.7,0.1,8.3V46.9z"/>
	<path class="st0" d="M107.8,46.9V6.7h-6V1.4h18.6v5.3h-6v40.2H107.8z"/>
	<path class="st0" d="M137.3,1.4h17v5.3h-10.5v14h7v5.3h-7v15.7h10.7v5.3h-17.3V1.4z"/>
	<path class="st0" d="M184.2,46.9c-0.2-0.6-0.4-1.5-0.5-2.7c-0.1-1.3-0.2-2.6-0.2-4l-0.2-9.9c0-1.6-0.4-2.7-1.2-3.4
		c-0.7-0.7-1.7-1-3-1h-1.1v21h-6.5V1.4h8.9c1.4,0,2.6,0.2,3.8,0.5c1.2,0.3,2.2,0.8,3.1,1.6c0.9,0.7,1.6,1.7,2.1,2.8
		c0.5,1.2,0.8,2.6,0.8,4.3v4.5c0,1.9-0.4,3.7-1.1,5.1c-0.7,1.5-2,2.6-3.8,3.2c1.5,0.5,2.5,1.3,3.2,2.6c0.7,1.2,1.1,2.8,1.2,4.6
		l0.3,10.3c0.1,1.6,0.2,2.9,0.3,4c0.1,1.1,0.2,1.7,0.2,1.9H184.2z M178.1,20.7h2c1.1,0,2-0.4,2.7-1.1c0.7-0.7,1.1-1.8,1.1-3.2v-5.5
		c0-2.8-1.2-4.2-3.7-4.2h-2V20.7z"/>
	<path class="st0" d="M238.1,47.4c-3,0-5.4-0.8-7.1-2.4c-1.7-1.6-2.5-3.8-2.5-6.5V9.9c0-2.7,0.8-4.9,2.5-6.5c1.7-1.6,4-2.4,7.1-2.4
		c3,0,5.4,0.8,7.1,2.4c1.7,1.6,2.5,3.8,2.5,6.5v28.6c0,2.7-0.8,4.9-2.5,6.5C243.5,46.6,241.2,47.4,238.1,47.4z M238.1,42.1
		c1.2,0,2-0.3,2.4-1c0.4-0.6,0.6-1.4,0.6-2.3V9.5c0-0.9-0.2-1.6-0.6-2.3c-0.4-0.6-1.2-1-2.4-1c-1.2,0-2,0.3-2.4,1
		c-0.4,0.6-0.6,1.4-0.6,2.3v29.3c0,0.9,0.2,1.6,0.6,2.3C236.2,41.8,237,42.1,238.1,42.1z"/>
	<path class="st0" d="M266.2,46.9V1.4h6.5v40.2h9.4v5.3H266.2z"/>
</g>
</svg>
