<?xml version="1.0" encoding="utf-8"?>
<!-- Generator: Adobe Illustrator 22.0.1, SVG Export Plug-In . SVG Version: 6.00 Build 0)  -->
<svg version="1.1" id="Layer_1" xmlns="http://www.w3.org/2000/svg" xmlns:xlink="http://www.w3.org/1999/xlink" x="0px" y="0px"
	 viewBox="0 0 128 128.1" style="enable-background:new 0 0 128 128.1;" xml:space="preserve">
<style type="text/css">
	.st0{fill:#FAE500;}
</style>
<g>
	<path class="st0" d="M53.4,56.8h15.6l-10.5,26c-1.5,3.8,1.3,8,5.4,8l13.7-34h0l4.8-12H45.3C42.9,50.6,47.2,56.8,53.4,56.8z"/>
	<path class="st0" d="M47.7,98.8l15.3-38h-8.6l-12.1,30C40.7,94.7,43.5,98.8,47.7,98.8z"/>
	<path class="st0" d="M71.4,82.8L71.4,82.8c5.2,0,9.9-3.2,11.9-8l5.7-14h-8.6L71.4,82.8z"/>
	<path class="st0" d="M83.9,27.7L61.1,5C57.4,1.3,51.8,0.2,47,2.2h0L69.8,25C73.5,28.7,79.1,29.8,83.9,27.7z"/>
	<path class="st0" d="M104.2,34c3.9-3.9,3.9-10.2,0-14.1c-3.9-3.9-10.2-3.9-14.1,0c-1.6,1.6-2.5,3.6-2.8,5.7l11.3,11.3
		C100.7,36.5,102.7,35.6,104.2,34z"/>
	<path class="st0" d="M112,86.1l-104,42l0,0c0-5.2,3.2-9.9,8-11.9l104-42l0,0C120,79.4,116.8,84.1,112,86.1z"/>
</g>
</svg>
