<?xml version="1.0" encoding="utf-8"?>
<!-- Generator: Adobe Illustrator 22.0.1, SVG Export Plug-In . SVG Version: 6.00 Build 0)  -->
<svg version="1.1" id="Layer_1" xmlns="http://www.w3.org/2000/svg" xmlns:xlink="http://www.w3.org/1999/xlink" x="0px" y="0px"
	 viewBox="0 0 128 128.1" style="enable-background:new 0 0 128 128.1;" xml:space="preserve">
<style type="text/css">
	.st0{fill:#FAE500;}
</style>
<g>
	<g>
		<path class="st0" d="M49.7,49.2c-1.2,1.9-2.9,3.3-4.9,4l-13.6-8.5c-0.2-2.1,0.3-4.2,1.5-6.2c2.9-4.7,9.1-6.1,13.8-3.2
			C51.2,38.3,52.7,44.5,49.7,49.2z"/>
		<path class="st0" d="M71.6,58c-1.2,1.9-2.9,3.3-4.9,4l-13.6-8.5c-0.2-2.1,0.3-4.2,1.5-6.2c2.9-4.7,9.1-6.1,13.8-3.2
			C73.1,47.1,74.5,53.3,71.6,58z"/>
	</g>
	<g>
		<g>
			<path class="st0" d="M57.3,88.4L57.3,88.4c-1.8,1.9-4.6,2.5-7,1.5L21.7,78.3l3-3.1L57.3,88.4z"/>
			<path class="st0" d="M113.2,111L113.2,111c-1.8,1.9-4.6,2.5-7,1.5l-28.6-11.6l3-3.1L113.2,111z"/>
		</g>
		<g>
			<polygon class="st0" points="78,70.9 78,92.5 8,64.2 8,42.6 			"/>
			<path class="st0" d="M82,72.5l0,21.6l38,15.3l0,0c0-13-7.9-24.8-20-29.7L82,72.5z"/>
		</g>
	</g>
</g>
</svg>
