<?xml version="1.0" encoding="utf-8"?>
<!-- Generator: Adobe Illustrator 22.0.1, SVG Export Plug-In . SVG Version: 6.00 Build 0)  -->
<svg version="1.1" xmlns="http://www.w3.org/2000/svg" xmlns:xlink="http://www.w3.org/1999/xlink" x="0px" y="0px"
	 viewBox="0 0 128 128.1" style="enable-background:new 0 0 128 128.1;" xml:space="preserve">
<style type="text/css">
	.st0{fill:#FAE500;}
</style>
<g id="Layer_1">
	<g>
		<g>
			<path class="st0" d="M70.4,98.5v-8.6l28-11.3c0,5.2-3.2,9.9-8,11.8L70.4,98.5z"/>
			<path class="st0" d="M28,115.7l23.7-10.1l-6.1-6.1L14,113C17.7,116.7,23.2,117.7,28,115.7"/>
			<path class="st0" d="M50.4,115.1c0.4-2.2,1.5-4.1,3-5.5l15.7,2.8c0.9,1.9,1.3,4,0.9,6.2c-1,5.4-6.1,9-11.5,8.1
				C53.1,125.7,49.5,120.5,50.4,115.1"/>
			<path class="st0" d="M48.8,84.4l7.5-18.6l10.1-25.1c1.9-4.8,6.6-8,11.8-8l-5.7,14.1L57.3,84.4H48.8z"/>
			<path class="st0" d="M61.7,84.4l17.7-43.8c4.1,0,6.9,4.2,5.4,8L70.2,84.4H61.7z"/>
			<path class="st0" d="M84.5,22.3l-5.3-2.1l44.6-18.1c1.9-0.8,4,0.6,4,2.7L84.5,22.3z"/>
		</g>
		<polygon class="st0" points="19.4,48.6 19.4,44.4 63.3,26.6 68.6,28.7 		"/>
		<g>
			<path class="st0" d="M19.4,4.6V0.3l104.5,42.3c2.4,1,3.9,3.3,3.9,5.8L19.4,4.6z"/>
			<path class="st0" d="M12.6,109.6L0.8,81c-1-2.4-0.4-5.2,1.4-7l14,34L12.6,109.6z"/>
			<path class="st0" d="M93.2,76.7l10.9-26.9c1-2.4,3.3-4,5.9-4L98.4,74.6L93.2,76.7z"/>
		</g>
	</g>
</g>
<g id="Layer_2">
</g>
<g id="Layer_3">
</g>
<g id="Layer_4">
</g>
<g id="Layer_5">
</g>
</svg>
