<?xml version="1.0" encoding="utf-8"?>
<!-- Generator: Adobe Illustrator 22.0.1, SVG Export Plug-In . SVG Version: 6.00 Build 0)  -->
<svg version="1.1" id="Layer_1" xmlns="http://www.w3.org/2000/svg" xmlns:xlink="http://www.w3.org/1999/xlink" x="0px" y="0px"
	 viewBox="0 0 128 128.1" style="enable-background:new 0 0 128 128.1;" xml:space="preserve">
<style type="text/css">
	.st0{fill:#FAE500;}
</style>
<g>
	<path class="st0" d="M120,68.5L120,68.5c0,2.6-1.6,5-4,5.9L8,118.1v-4.3L120,68.5z"/>
	<path class="st0" d="M104.6,27.4c-2.1,0.9-4.3,1-6.3,0.5L92,13.2c1-1.8,2.7-3.3,4.7-4.2c5.1-2.2,11,0.2,13.1,5.3
		C112,19.4,109.7,25.2,104.6,27.4z"/>
	<path class="st0" d="M85.6,27.6L61.4,51.8c-3.7,3.7-9.2,4.8-14,2.7l0,0l24.1-24.1C75.2,26.7,80.8,25.6,85.6,27.6L85.6,27.6z"/>
	<path class="st0" d="M20.3,98.6l69.3-69.3l0,0c5.7,2.4,7.1,9.8,2.8,14.2l-51,51C35.8,100,27.5,101.7,20.3,98.6L20.3,98.6z"/>
</g>
</svg>
