<?xml version="1.0" encoding="utf-8"?>
<!-- Generator: Adobe Illustrator 22.0.1, SVG Export Plug-In . SVG Version: 6.00 Build 0)  -->
<svg version="1.1" xmlns="http://www.w3.org/2000/svg" xmlns:xlink="http://www.w3.org/1999/xlink" x="0px" y="0px"
	 viewBox="0 0 128 128.1" style="enable-background:new 0 0 128 128.1;" xml:space="preserve">
<style type="text/css">
	.st0{fill:#FAE500;}
</style>
<g id="Layer_1">
	<g>
		<path class="st0" d="M65.2,61.5H49.6l10,24.1c1.5,3.8-1.3,8-5.4,8L41,61.5l-4.9-12h37.2C75.6,55.3,71.4,61.5,65.2,61.5"/>
		<path class="st0" d="M65.3,88.1l-9.8-22.6h8.6l6.6,14.6C72.3,84,69.5,88.1,65.3,88.1"/>
		<path class="st0" d="M16,45L16,45c0-5.2,3.2-9.9,8-11.9L39.9,27l3,7.4L16,45z"/>
		<path class="st0" d="M55.2,7.6c-2.1-5.1-7.9-7.6-13-5.5c-5.1,2.1-7.6,7.9-5.5,13c0.8,2.1,2.3,3.7,4.1,4.8l14.8-6
			C56.1,11.8,56,9.6,55.2,7.6"/>
		<path class="st0" d="M21.4,121.2l103.3-43.8c-3.7-3.7-9.2-4.8-14-2.7L7.4,118.5C11.1,122.2,16.6,123.3,21.4,121.2"/>
		<path class="st0" d="M89,96.5l38.8,15.6c0,0,0,2.9,0,4.8L82.6,99.1L89,96.5z"/>
	</g>
	<polygon class="st0" points="0.1,66.8 46.1,85.2 43.6,79 0.1,61.5 	"/>
	<g>
		<path class="st0" d="M83.1,10l-20.8,8.8l3,7.4l31.8-13.5C93.4,9.1,87.9,8,83.1,10"/>
	</g>
</g>
<g id="Layer_2">
</g>
</svg>
