<?xml version="1.0" encoding="utf-8"?>
<!-- Generator: Adobe Illustrator 22.0.1, SVG Export Plug-In . SVG Version: 6.00 Build 0)  -->
<svg version="1.1" id="Layer_1" xmlns="http://www.w3.org/2000/svg" xmlns:xlink="http://www.w3.org/1999/xlink" x="0px" y="0px"
	 viewBox="0 0 128 128.1" style="enable-background:new 0 0 128 128.1;" xml:space="preserve">
<style type="text/css">
	.st0{fill:#FAE500;}
</style>
<g>
	<path class="st0" d="M62.7,40.8l4.8-11.9h-8.6l-5,12.5c-1,3.6,1.7,7.3,5.5,7.3h14.9c5.2,0,10-3.2,12-8L62.7,40.8z"/>
	<path class="st0" d="M51.3,26L59,7c1-2.4,0.4-5.2-1.5-7l0,0L48.2,23l-0.3,0.8l0,0l-6.1,15c-2,4.8-0.8,10.4,3,14v0L54.4,29L51.3,26
		L51.3,26z"/>
	<path class="st0" d="M44.7,104.9h72c2.6,0,5-1.6,5.9-4H46.4L44.7,104.9z"/>
	<path class="st0" d="M2.7,113h55.4c2.6,0,5-1.6,5.9-4H4.3L2.7,113z"/>
	<path class="st0" d="M62.6,69.8L27.5,105h0c-3.8-1.6-4.8-6.6-1.8-9.5l23-23C52.3,68.9,57.8,67.8,62.6,69.8L62.6,69.8z"/>
	<path class="st0" d="M86.7,52.8l-17.9,44l0,0c-4.1,0-6.9-4.1-5.3-7.9l9.7-24.1h-16c-6.2,0-10.4-6.3-8.1-12l0,0H86.7z"/>
	<path class="st0" d="M81.3,13c0.8,2.1,0.9,4.3,0.4,6.3l-14.8,6c-1.8-1.1-3.3-2.7-4.1-4.8c-2.1-5.1,0.4-10.9,5.5-13
		C73.4,5.4,79.2,7.9,81.3,13z"/>
	<g>
		<path class="st0" d="M117.2,20.4L103,34.6c-1.5,1.5-3.5,2.3-5.7,2.3h-9.6l3.2-8h6.3l5.8-5.8C106.9,19.5,112.4,18.4,117.2,20.4
			L117.2,20.4z"/>
		<path class="st0" d="M125.3,23.9L97.6,51.6l0,0c-1.9-0.8-2.4-3.3-0.9-4.7l24.6-24.7L125.3,23.9z"/>
	</g>
</g>
</svg>
