<?xml version="1.0" encoding="utf-8"?>
<!-- Generator: Adobe Illustrator 22.0.1, SVG Export Plug-In . SVG Version: 6.00 Build 0)  -->
<svg version="1.1" id="Layer_1" xmlns="http://www.w3.org/2000/svg" xmlns:xlink="http://www.w3.org/1999/xlink" x="0px" y="0px"
	 viewBox="0 0 128 128.1" style="enable-background:new 0 0 128 128.1;" xml:space="preserve">
<style type="text/css">
	.st0{fill:#FAE500;}
</style>
<g>
	<path class="st0" d="M73.6,48.7L98,58.6l-2.7,5.1l-16-6.5C75.8,55.8,73.6,52.4,73.6,48.7"/>
	<path class="st0" d="M115.1,127.3l-67-28.7c2.6-2.6,6.6-3.4,10-1.9l67,28.7C122.5,128,118.5,128.7,115.1,127.3"/>
	<path class="st0" d="M83.8,75.5L83,103.8c2.7,1.2,5.7-0.7,5.8-3.7l0.8-22.2L83.8,75.5z"/>
	<path class="st0" d="M110.2,80.3L110.2,80.3c-0.1,4.4-4.6,7.3-8.6,5.6l-3.3-1.4l-0.5,18.6c-0.1,3.7-3.8,6.1-7.2,4.7l0.8-35.3
		L110.2,80.3z"/>
	<path class="st0" d="M112.4,51.1c0,1.6-0.5,3.1-1.4,4.3l-11.4,0c-0.9-1.2-1.4-2.7-1.4-4.3c0-3.9,3.2-7.1,7.1-7.1
		C109.2,44,112.4,47.1,112.4,51.1"/>
	<path class="st0" d="M127.8,85.3l-6.4-15.8c-0.6-1.4-1.7-2.5-3.1-3.1l-8-3.1l0,6.1l5.9,2.2l3.1,8.1
		C120.7,83.1,124.1,85.3,127.8,85.3"/>
	<path class="st0" d="M25.5,4.8l24.4,9.9l-2.7,5.1l-16-6.5C27.8,11.9,25.5,8.5,25.5,4.8"/>
	<path class="st0" d="M67.1,83.4l-67-28.7c2.6-2.6,6.6-3.4,10-1.9l67,28.7C74.4,84.1,70.5,84.8,67.1,83.4"/>
	<path class="st0" d="M35.8,31.6l-0.9,28.3c2.7,1.2,5.7-0.7,5.8-3.7L41.4,34L35.8,31.6z"/>
	<path class="st0" d="M62.2,36.4L62.2,36.4c-0.1,4.4-4.6,7.3-8.6,5.6l-3.3-1.4l-0.5,18.6c-0.1,3.7-3.8,6.1-7.2,4.7l0.8-35.3
		L62.2,36.4z"/>
	<path class="st0" d="M64.3,7.2c0,1.6-0.5,3.1-1.4,4.3l-11.4,0c-0.9-1.2-1.4-2.7-1.4-4.3c0-3.9,3.2-7.1,7.1-7.1
		C61.1,0.1,64.3,3.2,64.3,7.2"/>
	<path class="st0" d="M79.7,41.4l-6.4-15.8c-0.6-1.4-1.7-2.5-3.1-3.1l-8-3.1l0,6.1l5.9,2.2l3.1,8.1C72.6,39.2,76,41.4,79.7,41.4"/>
</g>
</svg>
