<?xml version="1.0" encoding="utf-8"?>
<!-- Generator: Adobe Illustrator 22.0.1, SVG Export Plug-In . SVG Version: 6.00 Build 0)  -->
<svg version="1.1" id="Layer_1" xmlns="http://www.w3.org/2000/svg" xmlns:xlink="http://www.w3.org/1999/xlink" x="0px" y="0px"
	 viewBox="0 0 128 128.1" style="enable-background:new 0 0 128 128.1;" xml:space="preserve">
<style type="text/css">
	.st0{fill:#FAE500;}
</style>
<g>
	<path class="st0" d="M49.5,82l-9.3,23H19.9c-5.2,0-9.9,3.2-11.9,8l0,0h41.9l12.5-31H49.5z"/>
	<path class="st0" d="M111.9,95L111.9,95c-4.8,2-10.3,1-14-2.7l-11-11c-2.9-2.9-1.9-7.8,1.8-9.4l0,0c0,0,0,0,0,0L111.9,95z"/>
	<path class="st0" d="M128,109c0,1.4-0.2,2.8-0.7,4h-22.6c-0.4-1.2-0.7-2.6-0.7-4c0-6.6,5.4-12,12-12C122.6,97,128,102.4,128,109z"
		/>
	<path class="st0" d="M90.3,65c-1.6,1.6-3.6,2.5-5.7,2.8L73.3,56.5c0.3-2.1,1.2-4.1,2.8-5.7c3.9-3.9,10.2-3.9,14.1,0
		C94.2,54.7,94.2,61.1,90.3,65z"/>
	<path class="st0" d="M66.8,82l-3.2,8h6.5l0,0L64,105c-1.5,3.8,1.3,8,5.4,8l0,0l12.5-31L66.8,82z"/>
</g>
</svg>
