<?xml version="1.0" encoding="utf-8"?>
<!-- Generator: Adobe Illustrator 22.0.1, SVG Export Plug-In . SVG Version: 6.00 Build 0)  -->
<svg version="1.1" xmlns="http://www.w3.org/2000/svg" xmlns:xlink="http://www.w3.org/1999/xlink" x="0px" y="0px"
	 viewBox="0 0 128 128.1" style="enable-background:new 0 0 128 128.1;" xml:space="preserve">
<style type="text/css">
	.st0{fill:#FAE500;}
</style>
<g id="Layer_1">
	<g>
		<g>
			<path class="st0" d="M74.7,71.8H59l10.6-26.1c1.6-3.8-1.3-8-5.4-8L50.3,71.8l-4.9,12.1h37.4C85.1,78.1,80.9,71.8,74.7,71.8"/>
			<path class="st0" d="M80.4,29.6L65,67.8h8.7l12.2-30.2C87.4,33.8,84.6,29.6,80.4,29.6"/>
			<path class="st0" d="M56.5,45.7L56.5,45.7c-5.2,0-10,3.2-11.9,8l-5.7,14.1h8.7L56.5,45.7z"/>
			<path class="st0" d="M44,101.1L66.9,124c3.7,3.7,9.3,4.8,14.1,2.8l-22.9-22.9C54.4,100.1,48.8,99.1,44,101.1"/>
			<path class="st0" d="M23.5,94.8c-3.9,3.9-3.9,10.3,0,14.2c3.9,3.9,10.3,3.9,14.2,0c1.6-1.6,2.5-3.6,2.8-5.7L29.2,92
				C27.1,92.3,25.1,93.2,23.5,94.8"/>
			<path class="st0" d="M15.7,42.4L120.3,0.1c0,5.2-3.2,10-8,11.9L7.6,54.3C7.6,49.1,10.8,44.4,15.7,42.4"/>
		</g>
	</g>
</g>
<g id="Layer_2">
</g>
<g id="Layer_3">
</g>
<g id="Layer_4">
</g>
<g id="Layer_5">
</g>
</svg>
