<?xml version="1.0" encoding="utf-8"?>
<!-- Generator: Adobe Illustrator 22.0.1, SVG Export Plug-In . SVG Version: 6.00 Build 0)  -->
<svg version="1.1" id="Layer_1" xmlns="http://www.w3.org/2000/svg" xmlns:xlink="http://www.w3.org/1999/xlink" x="0px" y="0px"
	 viewBox="0 0 128 128.1" style="enable-background:new 0 0 128 128.1;" xml:space="preserve">
<style type="text/css">
	.st0{fill:#FAE500;}
</style>
<g>
	<path class="st0" d="M84,45.3L84,45.3c0,2-1.2,3.7-3,4.5L0,82.4v-3.2L84,45.3z"/>
	<path class="st0" d="M72.4,14.4c-1.6,0.7-3.2,0.8-4.7,0.4L63,3.7c0.8-1.4,2-2.5,3.6-3.1c3.8-1.6,8.2,0.2,9.8,4
		C78,8.4,76.2,12.8,72.4,14.4z"/>
	<path class="st0" d="M58.2,14.6L40.1,32.7c-2.8,2.8-6.9,3.6-10.5,2l0,0l18.1-18.1C50.4,13.9,54.6,13.1,58.2,14.6L58.2,14.6z"/>
	<path class="st0" d="M9.2,67.8l52-52l0,0c4.3,1.8,5.4,7.4,2.1,10.7L25,64.7C20.8,68.9,14.6,70.1,9.2,67.8L9.2,67.8z"/>
</g>
<g>
	<path class="st0" d="M69.6,122.1h54c2,0,3.7-1.2,4.5-3H70.8L69.6,122.1z"/>
	<path class="st0" d="M38,128.1h41.6c2,0,3.7-1.2,4.5-3H39.2L38,128.1z"/>
	<path class="st0" d="M83,95.8l-26.4,26.4l0,0c-2.8-1.2-3.6-4.9-1.4-7.1l17.2-17.2C75.2,95,79.4,94.2,83,95.8L83,95.8z"/>
	<path class="st0" d="M101,83l-13.4,33l0,0c-3.1,0-5.1-3.1-4-5.9L90.9,92h-12c-4.6,0-7.8-4.7-6.1-9l0,0H101z"/>
	<path class="st0" d="M102.8,63.4c0,1.7-0.6,3.2-1.5,4.5h-12c-0.9-1.3-1.5-2.8-1.5-4.5c0-4.1,3.4-7.5,7.5-7.5
		C99.4,55.9,102.8,59.2,102.8,63.4z"/>
	<path class="st0" d="M82.4,71L80,77h-5.4l-3.2,3.2c-2.8,2.8-6.9,3.6-10.5,2l0,0L72.1,71H82.4z"/>
	<path class="st0" d="M121.9,64.6l-10.6,10.6c-1.1,1.1-2.7,1.8-4.2,1.8h-7.2l2.4-6h4.7l4.3-4.3C114.1,63.9,118.3,63.1,121.9,64.6
		L121.9,64.6z"/>
	<path class="st0" d="M61.8,85.6l-18.5,18.5c-1.4,1.4-3.5,1.8-5.3,1l0,0l20.7-20.8L61.8,85.6z"/>
	<path class="st0" d="M128,67.2L107.2,88l0,0c-1.4-0.6-1.8-2.5-0.7-3.6L125,65.9L128,67.2z"/>
</g>
</svg>
