<?xml version="1.0" encoding="utf-8"?>
<!-- Generator: Adobe Illustrator 22.0.1, SVG Export Plug-In . SVG Version: 6.00 Build 0)  -->
<svg version="1.1" id="Layer_1" xmlns="http://www.w3.org/2000/svg" xmlns:xlink="http://www.w3.org/1999/xlink" x="0px" y="0px"
	 viewBox="0 0 128 128.1" style="enable-background:new 0 0 128 128.1;" xml:space="preserve">
<style type="text/css">
	.st0{fill:#FAE500;}
</style>
<g>
	<path class="st0" d="M65.2,83.8H18.5l0,0c-1.5-3.8,1.3-8,5.4-8h29.5C58.6,75.8,63.3,79,65.2,83.8L65.2,83.8z"/>
	<path class="st0" d="M61,55.5L61,55.5c-5.7,2.4-7.1,9.8-2.8,14.2l18.1,18.1L57,96c-3.8,1.6-4.8,6.6-1.8,9.5l0,0l39.1-16.6L61,55.5z
		"/>
	<path class="st0" d="M22.4,93.5L22.4,93.5c-2.4,1-5.2,0.5-7-1.4L2.7,79.4l4-1.7L22.4,93.5z"/>
	<path class="st0" d="M110.9,66.2c-1.3,1.8-3.1,3.1-5.1,3.8l-13.1-9.2c-0.1-2.1,0.5-4.2,1.8-6.1c3.2-4.5,9.4-5.6,13.9-2.5
		C113,55.4,114.1,61.6,110.9,66.2z"/>
	<path class="st0" d="M89.5,61.4L89.5,61.4c-4.8,2-10.3,1-14-2.7L49.9,33.2l0,0c4.8-2,10.4-1,14.1,2.7L89.5,61.4z"/>
	<path class="st0" d="M125.3,85.2l-20,0c-2.1,0-4.2-0.8-5.7-2.3l-6.8-6.8l7.9-3.4l4.5,4.5h8.2C118.7,77.2,123.3,80.4,125.3,85.2
		L125.3,85.2z"/>
	<path class="st0" d="M68.6,109L68.6,109c-1,2.4-3.3,4-5.9,4h-18l1.6-4H68.6z"/>
</g>
</svg>
