<?xml version="1.0" encoding="utf-8"?>
<!-- Generator: Adobe Illustrator 22.0.1, SVG Export Plug-In . SVG Version: 6.00 Build 0)  -->
<svg version="1.1" xmlns="http://www.w3.org/2000/svg" xmlns:xlink="http://www.w3.org/1999/xlink" x="0px" y="0px"
	 viewBox="0 0 128 128.1" style="enable-background:new 0 0 128 128.1;" xml:space="preserve">
<style type="text/css">
	.st0{fill:#FAE500;}
</style>
<g id="Layer_1">
	<g>
		<path class="st0" d="M71,97.9l0.2-8.7L42.9,77.1c-0.1,5.3,3,10.1,7.9,12.2L71,97.9z"/>
		<path class="st0" d="M117.4,108.8L93.3,98.5l-0.2,8.7l32.1,13.7C125.4,115.7,122.3,110.9,117.4,108.8"/>
		<path class="st0" d="M91.3,121.6c0.9-2.1,0.9-4.3,0.4-6.4l-15-6.1c-1.8,1.1-3.3,2.7-4.2,4.9c-2.1,5.2,0.4,11.1,5.6,13.2
			C83.3,129.3,89.2,126.8,91.3,121.6"/>
		<path class="st0" d="M93.1,84.1l-7.6-19l-9.2-23c-2-4.9-6.7-8.1-12-8.1L69,45.8l15.5,38.3H93.1z"/>
		<path class="st0" d="M80.1,84.1l-18-44.5c-4.2,0-7,4.2-5.5,8.1l14.7,36.4H80.1z"/>
		<path class="st0" d="M9.1,54.1l-3-3.1l109.4-44c2.4-1,5.2-0.4,7,1.5L9.1,54.1z"/>
		<path class="st0" d="M3.1,48.1l-3-3.1l109.4-44c2.4-1,5.2-0.4,7,1.5L3.1,48.1z"/>
	</g>
</g>
<g id="Layer_2">
</g>
<g id="Layer_3">
</g>
<g id="Layer_4">
</g>
</svg>
