<?xml version="1.0" encoding="utf-8"?>
<!-- Generator: Adobe Illustrator 22.0.1, SVG Export Plug-In . SVG Version: 6.00 Build 0)  -->
<svg version="1.1" id="Layer_1" xmlns="http://www.w3.org/2000/svg" xmlns:xlink="http://www.w3.org/1999/xlink" x="0px" y="0px"
	 viewBox="0 0 128 128.1" style="enable-background:new 0 0 128 128.1;" xml:space="preserve">
<style type="text/css">
	.st0{fill:#FAE500;}
</style>
<g>
	<path class="st0" d="M22.1,49.8c-1.6,1.6-3.5,2.6-5.6,2.9L4.9,41.6c0.3-2.1,1.2-4.1,2.7-5.7c3.8-4,10.2-4.1,14.1-0.2
		C25.8,39.5,25.9,45.8,22.1,49.8z"/>
	<path class="st0" d="M106.3,93.3L106.3,93.3c-1.8,1.9-4.6,2.5-7,1.5L16.5,61.4l3-3.1L106.3,93.3z"/>
	<path class="st0" d="M70,65.7L70,65.7c-3.6,3.8-9.1,4.9-14,3L22.5,55.2l6-6.2L70,65.7z"/>
	<path class="st0" d="M123.1,87.2L123.1,87.2c-3.6,3.8-9.1,4.9-14,3L68,73.5l6-6.2L123.1,87.2z"/>
</g>
</svg>
