<?xml version="1.0" encoding="utf-8"?>
<!-- Generator: Adobe Illustrator 22.0.1, SVG Export Plug-In . SVG Version: 6.00 Build 0)  -->
<svg version="1.1" id="Layer_1" xmlns="http://www.w3.org/2000/svg" xmlns:xlink="http://www.w3.org/1999/xlink" x="0px" y="0px"
	 viewBox="0 0 128 128.1" style="enable-background:new 0 0 128 128.1;" xml:space="preserve">
<style type="text/css">
	.st0{fill:#FAE500;}
</style>
<g>
	<path class="st0" d="M75.7,64l-8.6,0h0l-1.6,4l-4.8,11.8l-18.1,0c-5.2,0-9.9,3.2-11.9,8l0,0l35.3,0L59.2,105c-1.5,3.8,1.3,8,5.4,8
		h0l19.8-49L75.7,64L75.7,64z"/>
	<path class="st0" d="M52.7,121h18c2.6,0,5-1.6,5.9-4l0,0H54.4L52.7,121z"/>
	<path class="st0" d="M14.2,95.6L14.2,95.6L30,79.8l-1.7-4L15.6,88.5C13.7,90.4,13.2,93.2,14.2,95.6z"/>
	<path class="st0" d="M64.6,43.6c2.1,0.8,4.3,0.9,6.3,0.4l6-14.8c-1.1-1.8-2.7-3.3-4.8-4.1c-5.1-2.1-11,0.4-13,5.5
		C57,35.7,59.5,41.5,64.6,43.6z"/>
	<path class="st0" d="M92.5,1.2L92.5,1.2l-11.3,28h8.6l8.1-20C99.5,5.3,96.6,1.2,92.5,1.2z"/>
	<path class="st0" d="M75.2,44L75.2,44c-1.5,3.8,1.3,8,5.4,8h27.5c5.2,0,9.9-3.2,11.8-8l0,0H75.2z"/>
</g>
</svg>
