<?xml version="1.0" encoding="utf-8"?>
<!-- Generator: Adobe Illustrator 22.0.1, SVG Export Plug-In . SVG Version: 6.00 Build 0)  -->
<svg version="1.1" xmlns="http://www.w3.org/2000/svg" xmlns:xlink="http://www.w3.org/1999/xlink" x="0px" y="0px"
	 viewBox="0 0 128 128.1" style="enable-background:new 0 0 128 128.1;" xml:space="preserve">
<style type="text/css">
	.st0{fill:#FAE500;}
</style>
<g id="Layer_1">
	<g>
		<g>
			<path class="st0" d="M39.2,7.5l37,15l-4.1,7.7l-24.3-9.9C42.6,18.2,39.2,13.1,39.2,7.5"/>
			<path class="st0" d="M102.3,126.9L0.5,83.3c4-4,10-5.1,15.2-2.9L117.5,124C113.5,128,107.5,129.1,102.3,126.9"/>
			<path class="st0" d="M54.7,48.2l-1.3,43c4.1,1.8,8.7-1.1,8.8-5.6l1.1-33.8L54.7,48.2z"/>
			<path class="st0" d="M94.9,55.5L94.9,55.5c-0.1,6.7-6.9,11.1-13.1,8.5l-5.1-2.1l-0.8,28.2c-0.1,5.6-5.8,9.3-10.9,7.1l1.2-53.6
				L94.9,55.5z"/>
			<path class="st0" d="M98.1,11.1c0,2.4-0.8,4.7-2.1,6.5l-17.3,0.1c-1.4-1.8-2.2-4-2.2-6.5c0-6,4.8-10.8,10.8-10.8
				C93.3,0.3,98.1,5.1,98.1,11.1"/>
			<path class="st0" d="M121.5,63.1l-9.7-24c-0.9-2.1-2.6-3.8-4.7-4.7L95,29.7l0,9.3l8.9,3.4l4.8,12.2
				C110.8,59.8,115.9,63.1,121.5,63.1"/>
		</g>
	</g>
</g>
<g id="Layer_2">
</g>
<g id="Layer_3">
</g>
</svg>
