<?xml version="1.0" encoding="utf-8"?>
<!-- Generator: Adobe Illustrator 22.0.1, SVG Export Plug-In . SVG Version: 6.00 Build 0)  -->
<svg version="1.1" xmlns="http://www.w3.org/2000/svg" xmlns:xlink="http://www.w3.org/1999/xlink" x="0px" y="0px"
	 viewBox="0 0 128 128.1" style="enable-background:new 0 0 128 128.1;" xml:space="preserve">
<style type="text/css">
	.st0{fill:#FAE500;}
</style>
<g id="Layer_1">
	<g>
		<g>
			<path class="st0" d="M62.9,6.9c0.9,2.1,0.9,4.3,0.4,6.4l-14.9,6c-1.8-1.1-3.3-2.7-4.1-4.8c-2.1-5.2,0.4-11,5.6-13.1
				C54.9-0.7,60.8,1.7,62.9,6.9"/>
			<path class="st0" d="M56.7,64.7l8.7-0.3l7.2,18c1.7,3.8-1,8.1-5.2,8.2L56.7,64.7z"/>
			<path class="st0" d="M37.4,49l37.4-1c2.5,5.7-1.6,12.1-7.8,12.3l-15.7,0.4l10.7,24.9c1.7,3.8-1.1,8.1-5.2,8.2L37.4,49z"/>
		</g>
		<path class="st0" d="M121,75.9l-3-3.1L61.6,95.6l0,0L5.1,118.3c1.8,1.9,4.5,2.4,6.9,1.5l48.5-19.5l0,0L121,75.9z"/>
		<g>
			<path class="st0" d="M121.3,80.2l3,3.1l-109,43.9c-2.4,1-5.1,0.4-6.9-1.5L121.3,80.2z"/>
			<path class="st0" d="M65.3,20.2l3.2,8.1l9.1,0.5l4.3,4.3c3.7,3.7,9.3,4.8,14.2,2.7L81,20.7L65.3,20.2z"/>
			<path class="st0" d="M98.6,38.9L120.7,61c1.9,1.9,2.4,4.7,1.4,7.1l-28-27.8L98.6,38.9z"/>
			<path class="st0" d="M11,45.2L11,45.2c0-5.3,3.2-10,8-12l24.2-8.9l0,8.7L11,45.2z"/>
			<path class="st0" d="M13.1,48.4l19,19.7c1.8,1.9,4.6,2.5,7,1.5L17.2,46.8L13.1,48.4z"/>
		</g>
	</g>
</g>
<g id="Layer_2">
</g>
<g id="Layer_3">
</g>
<g id="Layer_4">
</g>
<g id="Layer_5">
</g>
</svg>
