<?xml version="1.0" encoding="utf-8"?>
<!-- Generator: Adobe Illustrator 22.0.1, SVG Export Plug-In . SVG Version: 6.00 Build 0)  -->
<svg version="1.1" xmlns="http://www.w3.org/2000/svg" xmlns:xlink="http://www.w3.org/1999/xlink" x="0px" y="0px"
	 viewBox="0 0 128 128.1" style="enable-background:new 0 0 128 128.1;" xml:space="preserve">
<style type="text/css">
	.st0{fill:#FAE500;}
</style>
<g id="Layer_1">
	<g>
		<g>
			<path class="st0" d="M88.8,6.5c2.1-5.2,8-7.7,13.2-5.6c5.2,2.1,7.7,8,5.6,13.2c-0.9,2.1-2.3,3.8-4.2,4.9l-15-6.1
				C87.8,10.8,87.9,8.6,88.8,6.5"/>
			<path class="st0" d="M73.4,55.3l6.4,5.9l-6.4,16.1c-1.5,3.9-6.5,5-9.5,2.2L73.4,55.3z"/>
			<path class="st0" d="M70.7,30.2l24.9,23.6c-2.3,5.8-9.7,7.5-14.3,3.2l-9-8.7l-8.5,21.3c-1.5,3.9-6.5,5-9.5,2.2L70.7,30.2z"/>
			<path class="st0" d="M81.7,16.6L79,24.3l-9.6-3.8l-8.7,3.7c-4.8,2.1-10.5,1-14.2-2.8l22.8-9.7L81.7,16.6z"/>
			<path class="st0" d="M71,123.9l-3.4,2.4L28.3,30c-1-2.4-0.4-5.2,1.5-7L71,123.9z"/>
			<path class="st0" d="M127.8,43.1L127.8,43.1c0.1-5.3-2.9-10.1-7.8-12.2L100.1,23l-0.2,8.7L127.8,43.1z"/>
		</g>
		<polygon class="st0" points="56.6,79.7 101.2,97.6 100.6,101.7 58.7,84.9 		"/>
		<g>
			<path class="st0" d="M45,79.3L4,62.9c-2.4-1-4-3.3-4-5.9l42.8,17.2L45,79.3z"/>
		</g>
	</g>
</g>
<g id="Layer_2">
</g>
<g id="Layer_3">
</g>
<g id="Layer_4">
</g>
</svg>
