<?xml version="1.0" encoding="utf-8"?>
<!-- Generator: Adobe Illustrator 22.0.1, SVG Export Plug-In . SVG Version: 6.00 Build 0)  -->
<svg version="1.1" id="Layer_1" xmlns="http://www.w3.org/2000/svg" xmlns:xlink="http://www.w3.org/1999/xlink" x="0px" y="0px"
	 viewBox="0 0 128 128.1" style="enable-background:new 0 0 128 128.1;" xml:space="preserve">
<style type="text/css">
	.st0{fill:#FAE500;}
</style>
<g>
	<g>
		<path class="st0" d="M49.2,53.8H14.1l0,0c-1.2-2.9,1-6,4-6h22.1C44.2,47.8,47.7,50.2,49.2,53.8L49.2,53.8z"/>
		<path class="st0" d="M45.9,32.5L45.9,32.5c-4.3,1.8-5.4,7.4-2.1,10.7l13.6,13.6L43,62.9c-2.8,1.2-3.6,4.9-1.4,7.1l0,0l29.3-12.4
			L45.9,32.5z"/>
		<path class="st0" d="M17.1,61L17.1,61c-1.8,0.8-3.9,0.4-5.3-1l-9.5-9.5l3-1.3L17.1,61z"/>
		<path class="st0" d="M83.4,40.6c-1,1.4-2.3,2.3-3.8,2.8l-9.8-6.9c-0.1-1.6,0.4-3.2,1.3-4.6c2.4-3.4,7.1-4.2,10.4-1.8
			C84.9,32.5,85.8,37.2,83.4,40.6z"/>
		<path class="st0" d="M67.4,37L67.4,37c-3.6,1.5-7.8,0.7-10.5-2L37.7,15.8l0,0c3.6-1.5,7.8-0.7,10.5,2.1L67.4,37z"/>
		<path class="st0" d="M51.7,72.7L51.7,72.7c-0.7,1.8-2.5,3-4.5,3H33.7l1.2-3H51.7z"/>
	</g>
	<g>
		<path class="st0" d="M82.8,87.6H47.7l0,0c-1.2-2.9,1-6,4-6h22.1C77.8,81.6,81.4,84,82.8,87.6L82.8,87.6z"/>
		<path class="st0" d="M79.6,66.3L79.6,66.3c-4.3,1.8-5.4,7.4-2.1,10.7l13.6,13.6l-14.4,6.1c-2.8,1.2-3.6,4.9-1.4,7.1l0,0l29.3-12.4
			L79.6,66.3z"/>
		<path class="st0" d="M50.7,94.8L50.7,94.8c-1.8,0.8-3.9,0.4-5.3-1l-9.5-9.5l3-1.3L50.7,94.8z"/>
		<path class="st0" d="M117.1,74.4c-1,1.4-2.3,2.3-3.8,2.8l-9.8-6.9c-0.1-1.6,0.4-3.2,1.3-4.6c2.4-3.4,7.1-4.2,10.4-1.8
			C118.6,66.3,119.4,71,117.1,74.4z"/>
		<path class="st0" d="M101,70.8L101,70.8c-3.6,1.5-7.8,0.7-10.5-2L71.3,49.6l0,0c3.6-1.5,7.8-0.7,10.5,2.1L101,70.8z"/>
		<path class="st0" d="M127.9,88.6l-15,0c-1.6,0-3.1-0.6-4.2-1.8l-5.1-5.1l6-2.5l3.3,3.3h6.1C122.9,82.6,126.4,85,127.9,88.6
			L127.9,88.6z"/>
		<path class="st0" d="M85.3,106.5L85.3,106.5c-0.7,1.8-2.5,3-4.5,3H67.4l1.2-3H85.3z"/>
	</g>
</g>
</svg>
