<?xml version="1.0" encoding="utf-8"?>
<!-- Generator: Adobe Illustrator 22.0.1, SVG Export Plug-In . SVG Version: 6.00 Build 0)  -->
<svg version="1.1" id="Layer_1" xmlns="http://www.w3.org/2000/svg" xmlns:xlink="http://www.w3.org/1999/xlink" x="0px" y="0px"
	 viewBox="0 0 135 129" style="enable-background:new 0 0 135 129;" xml:space="preserve">
<style type="text/css">
	.st0{fill:#FAE500;}
</style>
<g>
	<path class="st0" d="M8.2,46.9l-4,1.7l75,75c1.8,1.8,4.6,2.4,7,1.4L8.2,46.9z"/>
	<path class="st0" d="M75.4,27.1L54.8,6.5c-1.8-1.8-4.6-2.4-7-1.4l23.6,23.6L75.4,27.1z"/>
	<path class="st0" d="M71.7,46l12,12l-19.2,8.2c-3.8,1.6-4.8,6.6-1.8,9.5l-6.1,2.6c-3.8,1.6-4.8,6.6-1.8,9.5l41.2-17.5l11.9-5.1
		L74.4,31.8l0,0C68.7,34.2,67.3,41.6,71.7,46z"/>
	<path class="st0" d="M130,64.8L96.4,31.2c-3.7-3.7-9.2-4.8-14.1-2.7l45.8,45.8C132,72.6,132.9,67.7,130,64.8z"/>
	<path class="st0" d="M116.8,48c2.1,0.1,4.2-0.4,6.1-1.6c4.6-3,6-9.2,2.9-13.8c-3-4.6-9.2-5.9-13.8-2.9c-1.9,1.2-3.2,3-3.9,5
		L116.8,48z"/>
</g>
</svg>
