<?xml version="1.0" encoding="utf-8"?>
<!-- Generator: Adobe Illustrator 22.0.1, SVG Export Plug-In . SVG Version: 6.00 Build 0)  -->
<svg version="1.1" id="Layer_1" xmlns="http://www.w3.org/2000/svg" xmlns:xlink="http://www.w3.org/1999/xlink" x="0px" y="0px"
	 viewBox="0 0 128 128.1" style="enable-background:new 0 0 128 128.1;" xml:space="preserve">
<style type="text/css">
	.st0{fill:#FAE500;}
</style>
<g>
	<path class="st0" d="M6.1,74.7l98.3,39.7c2.4,1,5.2,0.4,7-1.5L9.1,71.6L6.1,74.7z"/>
	<path class="st0" d="M90.4,100.1L90.4,100.1l22.2,9c2.9-3,1.8-7.9-2-9.4L96.5,94l-5-11.9c-2-4.8-6.8-7.9-12-7.8L90.4,100.1
		L90.4,100.1z"/>
	<path class="st0" d="M35.1,65l22.4,9l-4.4-10.4l-15.7-6.4L22.5,22.4c-3.7,3.7-4.8,9.2-2.7,14l9.9,23.2C30.7,62.1,32.7,64,35.1,65z"
		/>
	<path class="st0" d="M40.5,54.4L51,58.7L31.7,13.2c-3.7,3.7-4.8,9.2-2.7,14L40.5,54.4z"/>
	<path class="st0" d="M115.8,94.4c5.1-2.2,7.5-8,5.3-13.1c-2.2-5.1-8-7.5-13.1-5.3c-2.1,0.9-3.7,2.4-4.7,4.2l6.2,14.7
		C111.5,95.4,113.7,95.3,115.8,94.4z"/>
</g>
</svg>
