<?xml version="1.0" encoding="utf-8"?>
<!-- Generator: Adobe Illustrator 22.0.1, SVG Export Plug-In . SVG Version: 6.00 Build 0)  -->
<svg version="1.1" id="Layer_1" xmlns="http://www.w3.org/2000/svg" xmlns:xlink="http://www.w3.org/1999/xlink" x="0px" y="0px"
	 viewBox="0 0 128 128" style="enable-background:new 0 0 128 128;" xml:space="preserve">
<style type="text/css">
	.st0{clip-path:url(#SVGID_2_);}
</style>
<g>
	<g>
		<defs>
			<path id="SVGID_1_" d="M59.4,66.1c3.7-3.6,0.7-8.2-12.1-23c-0.6-0.7-1.2-1.5-1.8-2.3c-0.5-0.7-0.9-1.4-1.3-2.2
				c-0.3-0.7-0.6-1.3-0.8-2C43.1,36,43,35.3,43,34.7c0-0.6,0-1.2,0.1-1.8c0.1-0.6,0.3-1.1,0.6-1.6c0.3-0.5,0.7-1,1.1-1.5
				c0.5-0.5,1-1,1.6-1.4c0.7-0.5,1.4-0.9,2.1-1.2c0.8-0.4,1.7-0.8,2.6-1.1c1-0.4,2.1-0.7,3.1-1c1.2-0.3,2.4-0.6,3.6-0.8
				c0.2,0,0.4-0.1,0.7-0.1c0,0,0.1,0,0.1,0c0,0,0,0.1,0,0.1c-0.3,0.1-0.5,0.3-0.7,0.4c-0.3,0.2-0.6,0.4-0.8,0.6c0,0,0,0-0.1,0.1
				c-0.6,0.5-1.2,1.1-1.8,1.7c-0.2,0.2-0.4,0.4-0.6,0.6c-1.3,1.7-1.8,3.1-0.8,5.1c2.4,4.8,6.4,9,9.7,13.1c1.6,2,3.2,4,4.7,6.1
				c0.9,1.3,2,2.8,2.2,4.4C71.1,61.9,55.6,69.7,59.4,66.1z M76,53.4c4.7-4.5,0.9-10.2-15-28.7c-0.1-0.2-0.3-0.3-0.4-0.5
				c-0.1-0.2-0.3-0.3-0.4-0.5c-0.1-0.2-0.2-0.3-0.4-0.5c-0.1-0.2-0.2-0.3-0.4-0.5c-0.1-0.2-0.2-0.3-0.3-0.5
				c-0.1-0.1-0.2-0.3-0.3-0.4c-0.1-0.1-0.2-0.3-0.3-0.4c-0.1-0.1-0.2-0.3-0.3-0.4c-0.1-0.1-0.2-0.3-0.3-0.4
				c-0.1-0.1-0.2-0.3-0.3-0.4c-0.1-0.1-0.2-0.3-0.2-0.4c-0.1-0.1-0.2-0.3-0.2-0.4c-0.1-0.1-0.1-0.3-0.2-0.4
				c-0.1-0.1-0.1-0.3-0.2-0.4c-0.1-0.1-0.1-0.3-0.2-0.4c-0.1-0.1-0.1-0.3-0.2-0.4c-0.1-0.1-0.1-0.3-0.2-0.4c0-0.1-0.1-0.3-0.1-0.4
				c0-0.1-0.1-0.3-0.1-0.4c0-0.1-0.1-0.3-0.1-0.4c0-0.1-0.1-0.3-0.1-0.4c0-0.1-0.1-0.3-0.1-0.4c0-0.1,0-0.3-0.1-0.4
				c0-0.1,0-0.2,0-0.4c0-0.1,0-0.2,0-0.4c0-0.1,0-0.2,0-0.4c0-0.1,0-0.2,0-0.4c0-0.1,0-0.2,0-0.4c0-0.1,0-0.2,0-0.4
				c0-0.1,0-0.2,0-0.3c0-0.1,0-0.2,0.1-0.3c0-0.1,0-0.2,0.1-0.3c0-0.1,0.1-0.2,0.1-0.3c0-0.1,0.1-0.2,0.1-0.3c0-0.1,0.1-0.2,0.1-0.3
				c0-0.1,0.1-0.2,0.1-0.3c0-0.1,0.1-0.2,0.2-0.3c0.1-0.1,0.1-0.2,0.2-0.3c0.1-0.1,0.1-0.2,0.2-0.3c0.1-0.1,0.1-0.2,0.2-0.3
				C57,9.1,57.1,9,57.2,8.9c0.1-0.1,0.2-0.2,0.2-0.3c0.1-0.1,0.2-0.2,0.2-0.3c0.1-0.1,0.2-0.2,0.3-0.3c0.1-0.1,0.2-0.2,0.3-0.3
				c0.1-0.1,0.2-0.2,0.3-0.3c0.1-0.1,0.2-0.2,0.3-0.3C58.9,7.1,59,7,59.1,6.9c0.1-0.1,0.2-0.2,0.3-0.3c0.1-0.1,0.2-0.2,0.4-0.3
				c0.1-0.1,0.2-0.2,0.4-0.3c0.1-0.1,0.3-0.2,0.4-0.3c0.1-0.1,0.3-0.2,0.4-0.2c0.1-0.1,0.3-0.2,0.4-0.2c0.1-0.1,0.3-0.2,0.4-0.2
				c0.1-0.1,0.3-0.2,0.4-0.2c0.2-0.1,0.3-0.2,0.5-0.2c0.2-0.1,0.3-0.2,0.5-0.2c0.2-0.1,0.3-0.1,0.5-0.2C63.8,4.2,64,4.1,64.2,4
				c0.2-0.1,0.3-0.1,0.5-0.2c0.2-0.1,0.4-0.1,0.5-0.2c0.2-0.1,0.4-0.1,0.6-0.2c0.2-0.1,0.4-0.1,0.6-0.2c0.2-0.1,0.4-0.1,0.6-0.2
				c0.2-0.1,0.4-0.1,0.6-0.2c0.2-0.1,0.4-0.1,0.6-0.2c0.2-0.1,0.4-0.1,0.6-0.2c0.2-0.1,0.4-0.1,0.6-0.2c0.2-0.1,0.4-0.1,0.7-0.2
				C70.3,2,70.6,2,70.8,1.9c0.2-0.1,0.5-0.1,0.7-0.2c0.2-0.1,0.5-0.1,0.7-0.2c0.2-0.1,0.5-0.1,0.7-0.2c0.2-0.1,0.5-0.1,0.7-0.2
				c0.3-0.1,0.5-0.1,0.8-0.1C74.6,1.1,74.8,1,75,1c0,0,0.1-0.1,0.2,0.1c0,0.1,0,0.1-0.1,0.1c0,0-0.1,0-0.1,0c-0.1,0-0.1,0-0.1,0.1
				c-0.1,0-0.1,0.1-0.2,0.1c-0.1,0.1-0.2,0.1-0.3,0.2c-0.1,0.1-0.2,0.1-0.3,0.2c-0.1,0.1-0.2,0.2-0.3,0.2c-0.1,0.1-0.2,0.2-0.3,0.3
				c-0.1,0.1-0.2,0.2-0.4,0.3c-0.1,0.1-0.2,0.2-0.4,0.3c-0.1,0.1-0.2,0.2-0.4,0.3c-0.1,0.1-0.2,0.2-0.3,0.3
				c-0.1,0.1-0.2,0.2-0.3,0.3c-0.1,0.1-0.2,0.2-0.3,0.3c-0.1,0.1-0.2,0.2-0.3,0.2C71.1,4.3,71,4.4,71,4.4c-0.1,0-0.1,0.1-0.2,0.1
				c0,0-0.1,0.1-0.1,0.1C69.5,6,68,7.8,68.3,9.7c0.4,2.2,2,4.5,3.3,6.3c1.4,2,2.9,4,4.4,5.9c3.2,4,6.6,8,9.7,12.1
				c1.5,2.1,3.8,4.7,4.1,7.4C90.7,48.1,71.3,57.9,76,53.4z M42.1,96.3h29.1l-2.4,5.3H49.9C46.5,101.6,43.4,99.5,42.1,96.3z
				 M33.3,74.8h62.2L74.7,127c-5.4,0-9.2-5.6-7.1-10.6l10.2-25.7H44.1C35.9,90.6,30.3,82.4,33.3,74.8z M58.6,24.2
				C58.6,24.2,58.6,24.2,58.6,24.2c0.1,0.1,0.1,0.1,0.1,0.1"/>
		</defs>
		<use xlink:href="#SVGID_1_"  style="overflow:visible;fill:#FAE500;"/>
		<clipPath id="SVGID_2_">
			<use xlink:href="#SVGID_1_"  style="overflow:visible;"/>
		</clipPath>
		<g class="st0">
			<defs>
				<rect id="SVGID_3_" x="32.2" y="0.7" width="63.8" height="126.5"/>
			</defs>
			<use xlink:href="#SVGID_3_"  style="overflow:visible;fill:#FAE500;"/>
			<clipPath id="SVGID_4_">
				<use xlink:href="#SVGID_3_"  style="overflow:visible;"/>
			</clipPath>
		</g>
	</g>
</g>
</svg>
