<?xml version="1.0" encoding="utf-8"?>
<!-- Generator: Adobe Illustrator 22.0.1, SVG Export Plug-In . SVG Version: 6.00 Build 0)  -->
<svg version="1.1" id="Layer_1" xmlns="http://www.w3.org/2000/svg" xmlns:xlink="http://www.w3.org/1999/xlink" x="0px" y="0px"
	 viewBox="0 0 128 128.1" style="enable-background:new 0 0 128 128.1;" xml:space="preserve">
<style type="text/css">
	.st0{fill:#FAE500;}
</style>
<g>
	<path class="st0" d="M46.1,104.9h72c2.6,0,5-1.6,5.9-4H47.7L46.1,104.9z"/>
	<path class="st0" d="M4,113h55.4c2.6,0,5-1.6,5.9-4H5.6L4,113z"/>
	<path class="st0" d="M64,69.8L28.8,105l0,0c-3.8-1.6-4.8-6.6-1.8-9.5l23-23C53.6,68.9,59.2,67.8,64,69.8L64,69.8z"/>
	<path class="st0" d="M88,52.8l-17.9,44l0,0c-4.1,0-6.9-4.1-5.3-7.9l9.7-24.1h-16c-6.2,0-10.4-6.3-8.1-12l0,0H88z"/>
	<path class="st0" d="M90.4,26.6c0,2.2-0.8,4.3-2,6h-16c-1.3-1.7-2-3.8-2-6c0-5.5,4.5-10,10-10C85.9,16.6,90.4,21.1,90.4,26.6z"/>
	<path class="st0" d="M63.2,36.8l-3.2,8h-7.2l-4.3,4.3c-3.7,3.7-9.2,4.8-14,2.7l0,0l15-15H63.2z"/>
	<path class="st0" d="M115.9,28.3l-14.2,14.2c-1.5,1.5-3.5,2.3-5.7,2.3h-9.6l3.2-8H96l5.8-5.8C105.5,27.4,111.1,26.3,115.9,28.3
		L115.9,28.3z"/>
	<path class="st0" d="M35.7,56.4L11,81c-1.8,1.8-4.6,2.4-7,1.4l0,0l27.6-27.7L35.7,56.4z"/>
	<path class="st0" d="M124,31.7L96.3,59.4l0,0c-1.9-0.8-2.4-3.3-0.9-4.7L119.9,30L124,31.7z"/>
</g>
</svg>
