<?xml version="1.0" encoding="utf-8"?>
<!-- Generator: Adobe Illustrator 22.0.1, SVG Export Plug-In . SVG Version: 6.00 Build 0)  -->
<svg version="1.1" id="Layer_1" xmlns="http://www.w3.org/2000/svg" xmlns:xlink="http://www.w3.org/1999/xlink" x="0px" y="0px"
	 viewBox="0 0 135 129" style="enable-background:new 0 0 135 129;" xml:space="preserve">
<style type="text/css">
	.st0{fill:#FAE500;}
</style>
<path class="st0" d="M65.7,97.3v-8.1l26.5-10.7l0,0c0,4.9-3,9.3-7.5,11.2L65.7,97.3z M15.3,117.6L15.3,117.6l30-12.1v-8.1l-22.5,9.1
	C18.3,108.3,15.3,112.7,15.3,117.6z M54.5,123.9c5.1,0.9,10-2.5,10.9-7.6c0.4-2.1,0-4.1-0.9-5.9l-14.8-2.6c-1.4,1.3-2.5,3.1-2.8,5.2
	C46,118.1,49.4,123,54.5,123.9z M53.4,84l14.4-35.6l5.4-13.3l0,0c-4.9,0-9.3,3-11.1,7.5l-9.5,23.7L45.4,84H53.4z M65.6,84l13.7-33.8
	c1.5-3.6-1.2-7.5-5.1-7.5l0,0L57.5,84H65.6z M122.8,7.7L122.8,7.7c0-1.9-2-3.3-3.8-2.5L74,23.4l5,2L122.8,7.7z M64,31.4l-5-2
	L17.6,46.2v4L64,31.4z M122.8,51.1L122.8,51.1c0-2.4-1.5-4.6-3.7-5.5L17.6,4.6v4.1L122.8,51.1z"/>
</svg>
