<?xml version="1.0" encoding="utf-8"?>
<!-- Generator: Adobe Illustrator 22.0.1, SVG Export Plug-In . SVG Version: 6.00 Build 0)  -->
<svg version="1.1" id="Calque_1" xmlns="http://www.w3.org/2000/svg" xmlns:xlink="http://www.w3.org/1999/xlink" x="0px" y="0px"
	 viewBox="0 0 565 48.9" style="enable-background:new 0 0 565 48.9;" xml:space="preserve">
<style type="text/css">
	.st0{fill:#FFFFFF;}
</style>
<g>
	<g>
		<path class="st0" d="M432.3,45.4l2.7,2h1.6V23.7h-9v5h3.3v10.7c0,2.2-1,3.3-2.8,3.3c-2.2,0-2.8-1.6-2.8-3.3V9.8
			c0-1.7,0.6-3.3,2.7-3.3c2.1,0,2.7,1.6,2.7,3.3V17h5.7v-6.8c0-5.4-2.9-8.9-8.4-8.9c-5.7,0-8.9,3.6-8.9,8.9v29.7c0,5.2,3.3,8,7.6,8
			C429.6,47.9,431.6,46.6,432.3,45.4 M460.8,47.5h5.8l-4.8-45.7h-8.3l-5,45.7h5.6l0.8-8.1h5.2L460.8,47.5z M455.4,34.1l2.2-23.6
			l2,23.6H455.4z M484.5,34.2c0-6-0.1-11.8-0.4-19.3l4.4,32.6h5.6l4.4-32.6c-0.3,7.5-0.4,13.3-0.4,19.3v13.3h5.7V1.7H495l-3.7,29.9
			l-3.7-29.9h-8.8v45.7h5.7V34.2z M516.9,47.5H533v-5.3h-10V26.4h6.5v-5.3H523v-14h9.7V1.8h-15.8V47.5z M561.5,17V9.5
			c0-4.8-2.7-8.2-8.3-8.2c-5.3,0-8.6,3.3-8.6,8.6v3.7c0,5,1.6,8.4,4.8,11.3l3.7,3.5c2,1.8,2.7,3.7,2.7,6.9v4.4c0,1.9-1,2.9-2.7,2.9
			c-1.9,0-2.8-1.2-2.8-3.1v-8.4h-5.6v8.2c0,5.2,3.1,8.6,8.6,8.6s8.8-3.7,8.8-8.9v-4.5c0-5.1-1.8-7.9-4.6-10.6l-3.9-3.7
			c-1.8-1.7-2.8-3.7-2.8-6.6V9.3c0-1.7,0.8-2.8,2.5-2.8c1.8,0,2.6,1.2,2.6,3.1V17C555.9,17,561.5,17,561.5,17z"/>
		<path class="st0" d="M15.2,47.9c5.6,0,8.9-3.5,8.9-8.9V10.2c0-5.4-3.3-8.9-8.9-8.9c-5.6,0-8.9,3.5-8.9,8.9v28.7
			C6.4,44.4,9.6,47.9,15.2,47.9 M15.2,42.6c-2.2,0-2.7-1.6-2.7-3.3V9.8c0-1.7,0.6-3.3,2.7-3.3c2.2,0,2.7,1.6,2.7,3.3v29.5
			C18,41.1,17.4,42.6,15.2,42.6 M51.8,47.5v-5.3H43V1.7h-6.1v45.7L51.8,47.5L51.8,47.5z M72.3,47.5v-19l6.9-26.8H73l-3.7,17.4
			L65.9,1.7h-6.6l6.9,27v18.8C66.2,47.5,72.3,47.5,72.3,47.5z M97,34.2c0-6-0.1-11.8-0.4-19.3l4.4,32.6h5.6l4.4-32.6
			c-0.3,7.5-0.4,13.3-0.4,19.3v13.3h5.7V1.7h-8.8l-3.7,29.9l-3.7-29.9h-8.8v45.7H97V34.2z M135.5,47.5V26.4h2.2c5.3,0,9.1-3,9.1-9.9
			v-5c0-6.9-4.1-9.8-9.1-9.8h-8.2v45.7L135.5,47.5L135.5,47.5z M135.5,21.1v-14h1.8c2.2,0,3.5,1.3,3.5,4.4v5.1
			c0,3.1-1.3,4.4-3.5,4.4L135.5,21.1L135.5,21.1z M165.1,1.7H159v45.7h6.1V1.7z M189.5,31.1v8.2c0,1.7-0.7,3.3-2.7,3.3
			c-2.2,0-2.7-1.6-2.7-3.3V9.8c0-1.7,0.6-3.3,2.7-3.3s2.7,1.6,2.7,3.3V17h5.7v-6.8c0-5.4-2.9-8.9-8.4-8.9c-5.7,0-8.9,3.6-8.9,8.9
			v28.7c0,5.4,3.2,8.9,8.9,8.9c5.6,0,8.4-3.6,8.4-8.9v-7.8C195.2,31.1,189.5,31.1,189.5,31.1z"/>
		<path class="st0" d="M241.4,47.5h6.7l4.8-45.7h-5.8l-2.5,28.8l-3.3-28.9h-5.4l-3.4,28.9l-2.2-28.9H224l4.8,45.7h6.4l3.2-29.5
			L241.4,47.5z M271.2,1.7h-6.1v45.7h6.1V1.7z M289.8,33c0-5.2-0.2-11.6-0.5-16.6l6,31.1h7.3V1.7h-5.8v14.5c0,5.2,0.3,11.6,0.5,16.6
			l-6-31.1H284v45.7h5.7L289.8,33L289.8,33z M326.6,47.5V7h5.6V1.7h-17.3V7h5.6v40.4L326.6,47.5L326.6,47.5z M344.3,47.5h16.1v-5.3
			h-10V26.4h6.5v-5.3h-6.5v-14h9.7V1.8h-15.8L344.3,47.5L344.3,47.5z M384.3,47.5h6.1c-0.1-0.3-0.4-2.8-0.5-5.9l-0.3-10.4
			c-0.2-3.7-1.4-6.3-4.1-7.2c3.3-1.4,4.5-4.6,4.5-8.4V11c0-6.9-4.1-9.2-9.1-9.2h-8.3v45.7h6.1V26.3h1c2.4,0,3.8,1.3,3.9,4.5l0.2,9.9
			C383.7,43.5,384,46.4,384.3,47.5 M378.6,6.9h1.9c2.2,0,3.5,1.4,3.5,4.2v5.6c0,2.9-1.4,4.4-3.5,4.4h-1.8V6.9H378.6z"/>
	</g>
</g>
</svg>
