<?xml version="1.0" encoding="utf-8"?>
<!-- Generator: Adobe Illustrator 22.0.1, SVG Export Plug-In . SVG Version: 6.00 Build 0)  -->
<svg version="1.1" id="Calque_1" xmlns="http://www.w3.org/2000/svg" xmlns:xlink="http://www.w3.org/1999/xlink" x="0px" y="0px"
	 viewBox="0 0 808 95.5" style="enable-background:new 0 0 808 95.5;" xml:space="preserve">
<style type="text/css">
	.st0{fill:#FAE500;}
	.st1{fill:#FFFFFF;}
</style>
<g>
	<path class="st0" d="M23.7,54v25.5c0,4.9-1.5,8.6-4.4,11s-6.6,3.6-11,3.6H7.9V54H2.7V40.3h5.1V1.1h22.8c3.2,0,6.1,0.5,8.9,1.5
		c2.8,1,5.1,2.4,7.1,4.3s3.5,4.3,4.7,7.2C52.4,17,53,20.4,53,24.3v6.6c0,7.7-2.1,13.5-6.3,17.4c-4.2,3.9-9.6,5.8-16.1,5.8h-6.9V54z
		 M23.7,40.3h4.7c2.8,0,5-0.8,6.6-2.4s2.4-4.2,2.4-7.6v-5.4c0-3.4-0.8-6-2.4-7.6c-1.6-1.6-3.8-2.4-6.6-2.4h-4.7V40.3z"/>
	<path class="st0" d="M88,13c0.7-2.5,1.6-4.6,2.7-6.3c1.1-1.6,2.3-2.9,3.6-3.8C95.6,2,96.9,1.3,98.4,1c1.5-0.4,2.9-0.5,4.4-0.5h5.3
		L89.9,55.8v37.7H74.1V55.8L56.3,1.1h16.6l9.4,32.3L88,13z"/>
	<path class="st0" d="M156.8,1.5c0,3.8-1.1,6.9-3.2,9.5c-2.1,2.6-5.3,3.8-9.5,3.8h-12.4v25.5h18.6V54h-18.6v25.7h25.1v13.7h-40.9V54
		h-5.1V40.3h5.1V1.1h40.9L156.8,1.5L156.8,1.5z"/>
	<path class="st0" d="M162.3,22.2c0-3,0.5-5.8,1.4-8.5s2.4-5,4.3-7.1c1.9-2,4.4-3.6,7.3-4.9c2.9-1.2,6.3-1.8,10.3-1.8
		s7.4,0.6,10.3,1.8c2.9,1.2,5.3,2.9,7.3,4.9c1.9,2,3.4,4.4,4.3,7.1c0.9,2.7,1.4,5.5,1.4,8.5v50.1c0,3-0.5,5.8-1.4,8.5
		s-2.4,5.1-4.3,7.1c-1.9,2.1-4.4,3.7-7.3,4.9c-2.9,1.2-6.3,1.8-10.3,1.8s-7.4-0.6-10.3-1.8c-2.9-1.2-5.3-2.9-7.3-4.9
		c-1.9-2-3.4-4.4-4.3-7.1c-0.9-2.7-1.4-5.5-1.4-8.5V22.2z M192.8,21.6c0-1.8-0.5-3.5-1.5-5.2s-2.9-2.6-5.8-2.6s-4.8,0.9-5.8,2.6
		s-1.5,3.5-1.5,5.2V73c0,1.8,0.5,3.5,1.5,5.2s2.9,2.6,5.8,2.6s4.8-0.9,5.8-2.6c1-1.7,1.5-3.4,1.5-5.2V21.6z"/>
	<path class="st0" d="M233,34.4c0.2,2.2,0.3,4.9,0.5,8.1c0.1,3.2,0.2,6.5,0.3,10c0.1,3.4,0.2,6.8,0.2,10c0,3.3,0.1,6.1,0.1,8.4v9.6
		c0,4.6-1.4,8-4.2,10.2s-6.1,3.4-10.1,3.4h-0.4v-93h17.1l16.7,54.3c-0.2-2.2-0.3-4.7-0.5-7.5c-0.1-2.8-0.2-5.6-0.3-8.4
		c0-2.9-0.1-5.7-0.1-8.5s-0.1-5.4-0.1-7.8V1.1H267v92.3h-15.8L233,34.4z"/>
	<path class="st0" d="M324,46v47.5h-1.8c-1.8,0-3.6-0.4-5.4-1.1c-1.8-0.7-3.4-1.8-4.6-3.4c-1.1,1.5-2.8,2.8-5.1,4s-5,1.7-8.4,1.7
		c-3.3,0-6.3-0.5-8.9-1.6s-4.8-2.5-6.6-4.3c-1.8-1.8-3.2-4-4.1-6.5s-1.4-5.2-1.4-8.1V22.1c0-3,0.5-5.8,1.5-8.5s2.5-5,4.5-7.1
		c2-2,4.5-3.6,7.5-4.8c3-1.2,6.5-1.8,10.4-1.8c4,0,7.4,0.6,10.2,1.8c2.9,1.2,5.2,2.8,7.1,4.9c1.8,2.1,3.2,4.4,4.1,7.1
		s1.3,5.5,1.3,8.5v11.1h-15V22.1c0-2.1-0.5-4-1.6-5.7s-3.1-2.6-6-2.6s-4.9,0.9-6.1,2.6s-1.8,3.6-1.8,5.7v50.4c0,2.3,0.6,4.2,1.7,5.9
		c1.1,1.6,3.2,2.4,6.1,2.4c2.5,0,4.3-0.8,5.6-2.4c1.3-1.6,1.9-3.6,1.9-5.9V59.7h-8v-0.4c0-3.8,1-6.9,3-9.5c2-2.5,5.1-3.8,9.4-3.8
		H324z"/>
	<path class="st1" d="M379.4,56.1v16.2c0,3-0.4,5.8-1.3,8.5c-0.8,2.7-2.1,5.1-3.9,7.1c-1.8,2.1-4,3.7-6.9,4.9
		c-2.8,1.2-6.2,1.8-10.2,1.8s-7.4-0.6-10.4-1.8c-2.9-1.2-5.4-2.8-7.3-4.8s-3.4-4.4-4.3-7.1c-0.9-2.7-1.4-5.5-1.4-8.5V21.9
		c0-3,0.5-5.8,1.4-8.5s2.4-5,4.3-7.1c1.9-2,4.4-3.6,7.3-4.8c2.9-1.2,6.4-1.8,10.4-1.8s7.3,0.6,10.2,1.8c2.8,1.2,5.1,2.8,6.9,4.9
		s3.1,4.4,3.9,7.1s1.3,5.5,1.3,8.5v16.3H379c-4.1,0-7.6-1.1-10.4-3.4s-4.2-5.8-4.2-10.6v-2.4c0-0.9-0.1-1.8-0.3-2.8
		c-0.2-1-0.6-1.9-1.1-2.7c-0.5-0.8-1.3-1.5-2.2-2c-0.9-0.5-2.1-0.8-3.6-0.8c-1.4,0-2.6,0.3-3.6,0.8s-1.7,1.2-2.2,2s-0.9,1.7-1.1,2.7
		S350,21,350,21.9v50.5c0,0.9,0.1,1.8,0.3,2.8c0.2,1,0.6,1.9,1.1,2.7s1.3,1.5,2.2,2c1,0.5,2.2,0.8,3.6,0.8c1.5,0,2.7-0.3,3.6-0.8
		s1.6-1.2,2.2-2c0.5-0.8,0.9-1.7,1.1-2.7s0.3-1.9,0.3-2.8V70c0-4.7,1.4-8.3,4.2-10.6c2.8-2.3,6.3-3.4,10.4-3.4L379.4,56.1
		L379.4,56.1z"/>
	<path class="st1" d="M436.2,1.1v93h-0.4c-4.4,0-8.1-1.2-11-3.6c-2.9-2.4-4.4-6.1-4.4-11V54h-14.2v39.4h-15.8V54h-5.1V40.3h5.1V1.1
		h15.8v39.2h14.2V1.1H436.2z"/>
	<path class="st1" d="M494.5,94.1h-3.8c-1.5,0-3-0.2-4.4-0.5c-1.5-0.4-2.8-1-4-1.9s-2.3-2.2-3.2-3.8c-0.9-1.6-1.5-3.8-1.8-6.4
		l-1.7-12.3H462l-3.4,24.3h-14.8L458,1.1h22.2L494.5,94.1z M473.7,55.5l-4.9-35.1l-4.9,35.1H473.7z"/>
	<path class="st1" d="M515.6,34.4c0.2,2.2,0.3,4.9,0.5,8.1c0.1,3.2,0.2,6.5,0.3,10c0.1,3.4,0.2,6.8,0.2,10c0,3.3,0.1,6.1,0.1,8.4
		v9.6c0,4.6-1.4,8-4.2,10.2s-6.1,3.4-10.1,3.4H502v-93h17.1l16.8,54.3c-0.2-2.2-0.3-4.7-0.5-7.5c-0.1-2.8-0.2-5.6-0.3-8.4
		c0-2.9-0.1-5.7-0.1-8.5s-0.1-5.4-0.1-7.8V1.1h14.6v92.3h-15.8L515.6,34.4z"/>
	<path class="st1" d="M606.6,46v47.5h-1.8c-1.8,0-3.6-0.4-5.4-1.1c-1.8-0.7-3.4-1.8-4.6-3.4c-1.1,1.5-2.8,2.8-5.1,4s-5,1.7-8.4,1.7
		c-3.3,0-6.3-0.5-8.9-1.6c-2.6-1.1-4.8-2.5-6.6-4.3s-3.2-4-4.1-6.5s-1.4-5.2-1.4-8.1V22.1c0-3,0.5-5.8,1.5-8.5s2.5-5,4.5-7.1
		c2-2,4.5-3.6,7.5-4.8c3-1.2,6.5-1.8,10.4-1.8c4,0,7.4,0.6,10.2,1.8c2.9,1.2,5.2,2.8,7.1,4.9c1.8,2.1,3.2,4.4,4.1,7.1
		c0.9,2.7,1.3,5.5,1.3,8.5v11.1h-15V22.1c0-2.1-0.5-4-1.6-5.7s-3.1-2.6-6-2.6s-4.9,0.9-6.1,2.6c-1.2,1.7-1.8,3.6-1.8,5.7v50.4
		c0,2.3,0.6,4.2,1.7,5.9c1.1,1.6,3.2,2.4,6.1,2.4c2.5,0,4.3-0.8,5.6-2.4c1.3-1.6,1.9-3.6,1.9-5.9V59.7h-8v-0.4c0-3.8,1-6.9,3-9.5
		c2-2.5,5.1-3.8,9.4-3.8H606.6z"/>
	<path class="st0" d="M616.6,38.3V20.6c0-2.6,0.4-5.2,1.3-7.7c0.9-2.5,2.2-4.7,4.1-6.7c1.8-1.9,4.2-3.5,7.1-4.6
		c2.9-1.1,6.3-1.7,10.2-1.7c4,0,7.5,0.6,10.4,1.8s5.3,2.8,7.1,4.8s3.2,4.4,4,7.1s1.3,5.5,1.3,8.5v4.6c0,2.5-0.2,4.6-0.5,6.5
		s-0.9,3.8-1.8,5.6c-0.9,1.8-2.1,3.8-3.6,5.8s-3.4,4.4-5.7,7.1L637.7,67c-1.9,2.4-3.2,4.3-3.8,5.9c-0.6,1.5-0.9,3.6-0.9,6.1v0.7
		h29.1v13.7H618V80.6c0-2.4,0.1-4.5,0.3-6.4s0.7-3.7,1.3-5.5c0.7-1.8,1.6-3.6,2.7-5.4c1.1-1.8,2.7-3.9,4.6-6.1l11.6-13.6
		c1.6-1.8,2.9-3.4,3.8-4.7c1-1.3,1.7-2.5,2.3-3.6s1-2.4,1.2-3.6c0.2-1.3,0.3-2.8,0.3-4.6v-5.7c0-1.8-0.5-3.6-1.5-5.3
		c-1-1.7-2.9-2.5-5.8-2.5c-2.9,0-4.8,0.8-5.8,2.5s-1.5,3.4-1.5,5.3v2.8c0,4.7-1.4,8.3-4.2,10.6c-2.8,2.3-6.3,3.4-10.4,3.4
		L616.6,38.3L616.6,38.3z"/>
	<path class="st0" d="M669.8,22.2c0-3,0.5-5.8,1.4-8.5s2.4-5,4.3-7.1c1.9-2,4.4-3.6,7.3-4.9c2.9-1.2,6.3-1.8,10.3-1.8
		s7.4,0.6,10.3,1.8c2.9,1.2,5.3,2.9,7.3,4.9c1.9,2,3.4,4.4,4.3,7.1c0.9,2.7,1.4,5.5,1.4,8.5v50.1c0,3-0.5,5.8-1.4,8.5
		s-2.4,5.1-4.3,7.1c-1.9,2.1-4.4,3.7-7.3,4.9c-2.9,1.2-6.3,1.8-10.3,1.8s-7.4-0.6-10.3-1.8c-2.9-1.2-5.3-2.9-7.3-4.9
		c-1.9-2-3.4-4.4-4.3-7.1c-0.9-2.7-1.4-5.5-1.4-8.5V22.2z M700.3,21.6c0-1.8-0.5-3.5-1.5-5.2s-2.9-2.6-5.8-2.6s-4.8,0.9-5.8,2.6
		s-1.5,3.5-1.5,5.2V73c0,1.8,0.5,3.5,1.5,5.2s2.9,2.6,5.8,2.6s4.8-0.9,5.8-2.6c1-1.7,1.5-3.4,1.5-5.2V21.6z"/>
	<path class="st0" d="M746.3,1.1v93h-0.4c-4.4,0-8.1-1.2-11-3.6c-2.9-2.4-4.4-6.1-4.4-11V14.9h-8.7V1.1H746.3z"/>
	<path class="st0" d="M803.1,73c0,3-0.5,5.8-1.4,8.4s-2.4,4.9-4.3,6.9c-1.9,1.9-4.4,3.5-7.3,4.6s-6.3,1.7-10.3,1.7
		s-7.4-0.6-10.3-1.7s-5.3-2.7-7.3-4.7c-1.9-2-3.4-4.3-4.3-6.9c-0.9-2.6-1.4-5.4-1.4-8.4v-10c0-3.4,0.7-6.6,2-9.6s3.6-5.5,6.9-7.4
		c-3.3-1.8-5.5-4.3-6.9-7.3c-1.3-3-2-6.3-2-9.7v-7.4c0-3,0.5-5.8,1.4-8.4s2.4-4.9,4.3-6.9c1.9-2,4.4-3.5,7.3-4.7
		c2.9-1.1,6.3-1.7,10.3-1.7s7.4,0.6,10.3,1.7c2.9,1.1,5.3,2.7,7.3,4.6c1.9,1.9,3.4,4.2,4.3,6.9s1.4,5.5,1.4,8.4v7.4
		c0,3.4-0.7,6.7-2,9.7s-3.6,5.5-6.9,7.3c3.3,1.8,5.5,4.3,6.9,7.3c1.3,3,2,6.3,2,9.7V73z M787.2,21.6c0-1.8-0.5-3.5-1.5-5.2
		s-2.9-2.6-5.8-2.6s-4.8,0.9-5.8,2.6s-1.5,3.5-1.5,5.2V31c0,1.8,0.5,3.5,1.5,5.2s2.9,2.6,5.8,2.6s4.8-0.9,5.8-2.6s1.5-3.4,1.5-5.2
		V21.6z M787.2,61c0-1.8-0.5-3.5-1.5-5.2s-2.9-2.6-5.8-2.6s-4.8,0.9-5.8,2.6c-1,1.7-1.5,3.5-1.5,5.2v12c0,1.8,0.5,3.5,1.5,5.2
		s2.9,2.6,5.8,2.6s4.8-0.9,5.8-2.6c1-1.7,1.5-3.4,1.5-5.2V61z"/>
</g>
</svg>
